<mxfile host="app.diagrams.net" modified="2022-01-21T14:10:18.499Z" agent="5.0 (Windows NT 10.0; Win64; x64) AppleWebKit/537.36 (KHTML, like Gecko) Chrome/97.0.4692.99 Safari/537.36" etag="E1tXNw_IaAtoBHdKDzQT" version="16.4.3" type="github">
  <diagram id="C5RBs43oDa-KdzZeNtuy" name="Page-1">
    <mxGraphModel dx="1422" dy="794" grid="1" gridSize="10" guides="1" tooltips="1" connect="1" arrows="1" fold="1" page="1" pageScale="1" pageWidth="1169" pageHeight="827" background="#DAD2D8" math="0" shadow="0">
      <root>
        <mxCell id="WIyWlLk6GJQsqaUBKTNV-0" />
        <mxCell id="WIyWlLk6GJQsqaUBKTNV-1" parent="WIyWlLk6GJQsqaUBKTNV-0" />
        <mxCell id="S1zFZpBQ4yTUVJXa6N8P-120" value="" style="edgeStyle=orthogonalEdgeStyle;rounded=0;orthogonalLoop=1;jettySize=auto;html=1;entryX=1;entryY=0.5;entryDx=0;entryDy=0;exitX=0;exitY=0.5;exitDx=0;exitDy=0;endArrow=ERmandOne;endFill=0;startArrow=ERmany;startFill=0;labelBackgroundColor=#DAD2D8;strokeColor=#A8201A;fontColor=#143642;" parent="WIyWlLk6GJQsqaUBKTNV-1" source="S1zFZpBQ4yTUVJXa6N8P-52" target="S1zFZpBQ4yTUVJXa6N8P-219" edge="1">
          <mxGeometry relative="1" as="geometry">
            <mxPoint x="294" y="535" as="targetPoint" />
            <Array as="points">
              <mxPoint x="370" y="359" />
              <mxPoint x="370" y="224" />
            </Array>
          </mxGeometry>
        </mxCell>
        <mxCell id="S1zFZpBQ4yTUVJXa6N8P-19" value="receipt_array" style="shape=table;startSize=30;container=1;collapsible=0;childLayout=tableLayout;fixedRows=1;rowLines=0;fontStyle=1;align=center;pointerEvents=1;rounded=0;shadow=0;glass=0;sketch=0;swimlaneFillColor=default;fontSize=10;fillColor=#FAE5C7;strokeColor=#0F8B8D;fontColor=#143642;" parent="WIyWlLk6GJQsqaUBKTNV-1" vertex="1">
          <mxGeometry x="390" y="180" width="330" height="434" as="geometry" />
        </mxCell>
        <mxCell id="S1zFZpBQ4yTUVJXa6N8P-20" value="" style="shape=partialRectangle;html=1;whiteSpace=wrap;collapsible=0;dropTarget=0;pointerEvents=1;fillColor=none;top=0;left=0;bottom=1;right=0;points=[[0,0.5],[1,0.5]];portConstraint=eastwest;fontSize=10;spacing=2;strokeColor=#0F8B8D;fontColor=#143642;" parent="S1zFZpBQ4yTUVJXa6N8P-19" vertex="1">
          <mxGeometry y="30" width="330" height="27" as="geometry" />
        </mxCell>
        <mxCell id="S1zFZpBQ4yTUVJXa6N8P-21" value="&lt;span style=&quot;text-align: left; font-size: 10px;&quot;&gt;receipt_array_id&lt;/span&gt;" style="shape=partialRectangle;html=1;whiteSpace=wrap;connectable=0;fillColor=none;top=0;left=0;bottom=0;right=0;overflow=hidden;pointerEvents=1;fontSize=10;strokeColor=#0F8B8D;fontColor=#143642;" parent="S1zFZpBQ4yTUVJXa6N8P-20" vertex="1">
          <mxGeometry width="91" height="27" as="geometry">
            <mxRectangle width="91" height="27" as="alternateBounds" />
          </mxGeometry>
        </mxCell>
        <mxCell id="S1zFZpBQ4yTUVJXa6N8P-22" value="primary_key" style="shape=partialRectangle;html=1;whiteSpace=wrap;connectable=0;fillColor=none;top=0;left=0;bottom=0;right=0;align=left;spacingLeft=6;overflow=hidden;pointerEvents=1;fontSize=10;strokeColor=#0F8B8D;fontColor=#143642;" parent="S1zFZpBQ4yTUVJXa6N8P-20" vertex="1">
          <mxGeometry x="91" width="120" height="27" as="geometry">
            <mxRectangle width="120" height="27" as="alternateBounds" />
          </mxGeometry>
        </mxCell>
        <mxCell id="S1zFZpBQ4yTUVJXa6N8P-61" value="" style="shape=partialRectangle;html=1;whiteSpace=wrap;connectable=0;fillColor=none;top=0;left=0;bottom=0;right=0;align=left;spacingLeft=6;overflow=hidden;pointerEvents=1;fontSize=10;strokeColor=#0F8B8D;fontColor=#143642;" parent="S1zFZpBQ4yTUVJXa6N8P-20" vertex="1">
          <mxGeometry x="211" width="119" height="27" as="geometry">
            <mxRectangle width="119" height="27" as="alternateBounds" />
          </mxGeometry>
        </mxCell>
        <mxCell id="S1zFZpBQ4yTUVJXa6N8P-23" value="" style="shape=partialRectangle;html=1;whiteSpace=wrap;collapsible=0;dropTarget=0;pointerEvents=1;fillColor=none;top=0;left=0;bottom=1;right=0;points=[[0,0.5],[1,0.5]];portConstraint=eastwest;fontSize=10;strokeColor=#0F8B8D;fontColor=#143642;" parent="S1zFZpBQ4yTUVJXa6N8P-19" vertex="1">
          <mxGeometry y="57" width="330" height="27" as="geometry" />
        </mxCell>
        <mxCell id="S1zFZpBQ4yTUVJXa6N8P-24" value="&lt;span style=&quot;text-align: left; font-size: 10px;&quot;&gt;receipt_id&lt;/span&gt;" style="shape=partialRectangle;html=1;whiteSpace=wrap;connectable=0;fillColor=none;top=0;left=0;bottom=0;right=0;overflow=hidden;pointerEvents=1;fontSize=10;strokeColor=#0F8B8D;fontColor=#143642;" parent="S1zFZpBQ4yTUVJXa6N8P-23" vertex="1">
          <mxGeometry width="91" height="27" as="geometry">
            <mxRectangle width="91" height="27" as="alternateBounds" />
          </mxGeometry>
        </mxCell>
        <mxCell id="S1zFZpBQ4yTUVJXa6N8P-25" value="" style="shape=partialRectangle;html=1;whiteSpace=wrap;connectable=0;fillColor=none;top=0;left=0;bottom=0;right=0;align=left;spacingLeft=6;overflow=hidden;pointerEvents=1;fontSize=10;strokeColor=#0F8B8D;fontColor=#143642;" parent="S1zFZpBQ4yTUVJXa6N8P-23" vertex="1">
          <mxGeometry x="91" width="120" height="27" as="geometry">
            <mxRectangle width="120" height="27" as="alternateBounds" />
          </mxGeometry>
        </mxCell>
        <mxCell id="S1zFZpBQ4yTUVJXa6N8P-62" value="&lt;span style=&quot;font-size: 10px;&quot;&gt;Идентификатор чека&lt;/span&gt;" style="shape=partialRectangle;html=1;whiteSpace=wrap;connectable=0;fillColor=none;top=0;left=0;bottom=0;right=0;align=left;spacingLeft=6;overflow=hidden;pointerEvents=1;fontSize=10;strokeColor=#0F8B8D;fontColor=#143642;" parent="S1zFZpBQ4yTUVJXa6N8P-23" vertex="1">
          <mxGeometry x="211" width="119" height="27" as="geometry">
            <mxRectangle width="119" height="27" as="alternateBounds" />
          </mxGeometry>
        </mxCell>
        <mxCell id="S1zFZpBQ4yTUVJXa6N8P-26" value="" style="shape=partialRectangle;html=1;whiteSpace=wrap;collapsible=0;dropTarget=0;pointerEvents=1;fillColor=none;top=0;left=0;bottom=1;right=0;points=[[0,0.5],[1,0.5]];portConstraint=eastwest;fontSize=10;strokeColor=#0F8B8D;fontColor=#143642;" parent="S1zFZpBQ4yTUVJXa6N8P-19" vertex="1">
          <mxGeometry y="84" width="330" height="27" as="geometry" />
        </mxCell>
        <mxCell id="S1zFZpBQ4yTUVJXa6N8P-27" value="&lt;span style=&quot;text-align: left; font-size: 10px;&quot;&gt;receipt_date_sourse&lt;/span&gt;" style="shape=partialRectangle;html=1;whiteSpace=wrap;connectable=0;fillColor=none;top=0;left=0;bottom=0;right=0;overflow=hidden;pointerEvents=1;fontSize=10;strokeColor=#0F8B8D;fontColor=#143642;" parent="S1zFZpBQ4yTUVJXa6N8P-26" vertex="1">
          <mxGeometry width="91" height="27" as="geometry">
            <mxRectangle width="91" height="27" as="alternateBounds" />
          </mxGeometry>
        </mxCell>
        <mxCell id="S1zFZpBQ4yTUVJXa6N8P-28" value="" style="shape=partialRectangle;html=1;whiteSpace=wrap;connectable=0;fillColor=none;top=0;left=0;bottom=0;right=0;align=left;spacingLeft=6;overflow=hidden;pointerEvents=1;fontSize=10;strokeColor=#0F8B8D;fontColor=#143642;" parent="S1zFZpBQ4yTUVJXa6N8P-26" vertex="1">
          <mxGeometry x="91" width="120" height="27" as="geometry">
            <mxRectangle width="120" height="27" as="alternateBounds" />
          </mxGeometry>
        </mxCell>
        <mxCell id="S1zFZpBQ4yTUVJXa6N8P-63" value="&lt;span style=&quot;font-size: 10px;&quot;&gt;Исходный формат даты&lt;/span&gt;" style="shape=partialRectangle;html=1;whiteSpace=wrap;connectable=0;fillColor=none;top=0;left=0;bottom=0;right=0;align=left;spacingLeft=6;overflow=hidden;pointerEvents=1;fontSize=10;strokeColor=#0F8B8D;fontColor=#143642;" parent="S1zFZpBQ4yTUVJXa6N8P-26" vertex="1">
          <mxGeometry x="211" width="119" height="27" as="geometry">
            <mxRectangle width="119" height="27" as="alternateBounds" />
          </mxGeometry>
        </mxCell>
        <mxCell id="S1zFZpBQ4yTUVJXa6N8P-46" style="shape=partialRectangle;html=1;whiteSpace=wrap;collapsible=0;dropTarget=0;pointerEvents=1;fillColor=none;top=0;left=0;bottom=1;right=0;points=[[0,0.5],[1,0.5]];portConstraint=eastwest;fontSize=10;strokeColor=#0F8B8D;fontColor=#143642;" parent="S1zFZpBQ4yTUVJXa6N8P-19" vertex="1">
          <mxGeometry y="111" width="330" height="27" as="geometry" />
        </mxCell>
        <mxCell id="S1zFZpBQ4yTUVJXa6N8P-47" value="receipt_date" style="shape=partialRectangle;html=1;whiteSpace=wrap;connectable=0;fillColor=none;top=0;left=0;bottom=0;right=0;overflow=hidden;pointerEvents=1;fontSize=10;strokeColor=#0F8B8D;fontColor=#143642;" parent="S1zFZpBQ4yTUVJXa6N8P-46" vertex="1">
          <mxGeometry width="91" height="27" as="geometry">
            <mxRectangle width="91" height="27" as="alternateBounds" />
          </mxGeometry>
        </mxCell>
        <mxCell id="S1zFZpBQ4yTUVJXa6N8P-48" value="" style="shape=partialRectangle;html=1;whiteSpace=wrap;connectable=0;fillColor=none;top=0;left=0;bottom=0;right=0;align=left;spacingLeft=6;overflow=hidden;pointerEvents=1;fontSize=10;strokeColor=#0F8B8D;fontColor=#143642;" parent="S1zFZpBQ4yTUVJXa6N8P-46" vertex="1">
          <mxGeometry x="91" width="120" height="27" as="geometry">
            <mxRectangle width="120" height="27" as="alternateBounds" />
          </mxGeometry>
        </mxCell>
        <mxCell id="S1zFZpBQ4yTUVJXa6N8P-64" value="&lt;span style=&quot;font-size: 10px;&quot;&gt;Преобразованная дата в формат дд-мм-гггг&lt;/span&gt;" style="shape=partialRectangle;html=1;whiteSpace=wrap;connectable=0;fillColor=none;top=0;left=0;bottom=0;right=0;align=left;spacingLeft=6;overflow=hidden;pointerEvents=1;fontSize=10;strokeColor=#0F8B8D;fontColor=#143642;" parent="S1zFZpBQ4yTUVJXa6N8P-46" vertex="1">
          <mxGeometry x="211" width="119" height="27" as="geometry">
            <mxRectangle width="119" height="27" as="alternateBounds" />
          </mxGeometry>
        </mxCell>
        <mxCell id="S1zFZpBQ4yTUVJXa6N8P-49" style="shape=partialRectangle;html=1;whiteSpace=wrap;collapsible=0;dropTarget=0;pointerEvents=1;fillColor=none;top=0;left=0;bottom=1;right=0;points=[[0,0.5],[1,0.5]];portConstraint=eastwest;fontSize=10;strokeColor=#0F8B8D;fontColor=#143642;" parent="S1zFZpBQ4yTUVJXa6N8P-19" vertex="1">
          <mxGeometry y="138" width="330" height="27" as="geometry" />
        </mxCell>
        <mxCell id="S1zFZpBQ4yTUVJXa6N8P-50" value="receipt_time" style="shape=partialRectangle;html=1;whiteSpace=wrap;connectable=0;fillColor=none;top=0;left=0;bottom=0;right=0;overflow=hidden;pointerEvents=1;fontSize=10;strokeColor=#0F8B8D;fontColor=#143642;" parent="S1zFZpBQ4yTUVJXa6N8P-49" vertex="1">
          <mxGeometry width="91" height="27" as="geometry">
            <mxRectangle width="91" height="27" as="alternateBounds" />
          </mxGeometry>
        </mxCell>
        <mxCell id="S1zFZpBQ4yTUVJXa6N8P-51" value="" style="shape=partialRectangle;html=1;whiteSpace=wrap;connectable=0;fillColor=none;top=0;left=0;bottom=0;right=0;align=left;spacingLeft=6;overflow=hidden;pointerEvents=1;fontSize=10;strokeColor=#0F8B8D;fontColor=#143642;" parent="S1zFZpBQ4yTUVJXa6N8P-49" vertex="1">
          <mxGeometry x="91" width="120" height="27" as="geometry">
            <mxRectangle width="120" height="27" as="alternateBounds" />
          </mxGeometry>
        </mxCell>
        <mxCell id="S1zFZpBQ4yTUVJXa6N8P-65" value="&lt;span style=&quot;font-size: 10px;&quot;&gt;Преобразованная дата в формат чч:мм&lt;/span&gt;" style="shape=partialRectangle;html=1;whiteSpace=wrap;connectable=0;fillColor=none;top=0;left=0;bottom=0;right=0;align=left;spacingLeft=6;overflow=hidden;pointerEvents=1;fontSize=10;strokeColor=#0F8B8D;fontColor=#143642;" parent="S1zFZpBQ4yTUVJXa6N8P-49" vertex="1">
          <mxGeometry x="211" width="119" height="27" as="geometry">
            <mxRectangle width="119" height="27" as="alternateBounds" />
          </mxGeometry>
        </mxCell>
        <mxCell id="S1zFZpBQ4yTUVJXa6N8P-52" style="shape=partialRectangle;html=1;whiteSpace=wrap;collapsible=0;dropTarget=0;pointerEvents=1;fillColor=none;top=0;left=0;bottom=1;right=0;points=[[0,0.5],[1,0.5]];portConstraint=eastwest;fontSize=10;strokeColor=#0F8B8D;fontColor=#143642;" parent="S1zFZpBQ4yTUVJXa6N8P-19" vertex="1">
          <mxGeometry y="165" width="330" height="27" as="geometry" />
        </mxCell>
        <mxCell id="S1zFZpBQ4yTUVJXa6N8P-53" value="chain_inn" style="shape=partialRectangle;html=1;whiteSpace=wrap;connectable=0;fillColor=none;top=0;left=0;bottom=0;right=0;overflow=hidden;pointerEvents=1;fontSize=10;strokeColor=#0F8B8D;fontColor=#143642;" parent="S1zFZpBQ4yTUVJXa6N8P-52" vertex="1">
          <mxGeometry width="91" height="27" as="geometry">
            <mxRectangle width="91" height="27" as="alternateBounds" />
          </mxGeometry>
        </mxCell>
        <mxCell id="S1zFZpBQ4yTUVJXa6N8P-54" value="&lt;code class=&quot;sql keyword&quot; style=&quot;line-height: 19.5px; border-radius: 0px; background: none; border: 0px; float: none; height: auto; margin: 0px; outline: 0px; overflow: visible; padding: 0px; position: static; vertical-align: baseline; width: auto; box-sizing: content-box; min-height: auto; font-size: 10px;&quot;&gt;&lt;font face=&quot;Helvetica&quot; style=&quot;font-size: 10px;&quot;&gt;foreign_key (retail)&lt;/font&gt;&lt;/code&gt;" style="shape=partialRectangle;html=1;whiteSpace=wrap;connectable=0;fillColor=none;top=0;left=0;bottom=0;right=0;align=left;spacingLeft=6;overflow=hidden;pointerEvents=1;fontSize=10;strokeColor=#0F8B8D;fontColor=#143642;" parent="S1zFZpBQ4yTUVJXa6N8P-52" vertex="1">
          <mxGeometry x="91" width="120" height="27" as="geometry">
            <mxRectangle width="120" height="27" as="alternateBounds" />
          </mxGeometry>
        </mxCell>
        <mxCell id="S1zFZpBQ4yTUVJXa6N8P-66" value="ИНН магазина" style="shape=partialRectangle;html=1;whiteSpace=wrap;connectable=0;fillColor=none;top=0;left=0;bottom=0;right=0;align=left;spacingLeft=6;overflow=hidden;pointerEvents=1;fontSize=10;strokeColor=#0F8B8D;fontColor=#143642;" parent="S1zFZpBQ4yTUVJXa6N8P-52" vertex="1">
          <mxGeometry x="211" width="119" height="27" as="geometry">
            <mxRectangle width="119" height="27" as="alternateBounds" />
          </mxGeometry>
        </mxCell>
        <mxCell id="oaC9kHGjSpN0zHe9U0Ck-0" style="shape=partialRectangle;html=1;whiteSpace=wrap;collapsible=0;dropTarget=0;pointerEvents=1;fillColor=none;top=0;left=0;bottom=1;right=0;points=[[0,0.5],[1,0.5]];portConstraint=eastwest;fontSize=10;strokeColor=#0F8B8D;fontColor=#143642;" parent="S1zFZpBQ4yTUVJXa6N8P-19" vertex="1">
          <mxGeometry y="192" width="330" height="27" as="geometry" />
        </mxCell>
        <mxCell id="oaC9kHGjSpN0zHe9U0Ck-1" value="chain&lt;span&gt;_address&lt;/span&gt;" style="shape=partialRectangle;html=1;whiteSpace=wrap;connectable=0;fillColor=none;top=0;left=0;bottom=0;right=0;overflow=hidden;pointerEvents=1;fontSize=10;strokeColor=#0F8B8D;fontColor=#143642;" parent="oaC9kHGjSpN0zHe9U0Ck-0" vertex="1">
          <mxGeometry width="91" height="27" as="geometry">
            <mxRectangle width="91" height="27" as="alternateBounds" />
          </mxGeometry>
        </mxCell>
        <mxCell id="oaC9kHGjSpN0zHe9U0Ck-2" style="shape=partialRectangle;html=1;whiteSpace=wrap;connectable=0;fillColor=none;top=0;left=0;bottom=0;right=0;align=left;spacingLeft=6;overflow=hidden;pointerEvents=1;fontSize=10;strokeColor=#0F8B8D;fontColor=#143642;" parent="oaC9kHGjSpN0zHe9U0Ck-0" vertex="1">
          <mxGeometry x="91" width="120" height="27" as="geometry">
            <mxRectangle width="120" height="27" as="alternateBounds" />
          </mxGeometry>
        </mxCell>
        <mxCell id="oaC9kHGjSpN0zHe9U0Ck-3" value="&lt;span&gt;Адрес магазина&lt;/span&gt;" style="shape=partialRectangle;html=1;whiteSpace=wrap;connectable=0;fillColor=none;top=0;left=0;bottom=0;right=0;align=left;spacingLeft=6;overflow=hidden;pointerEvents=1;fontSize=10;strokeColor=#0F8B8D;fontColor=#143642;" parent="oaC9kHGjSpN0zHe9U0Ck-0" vertex="1">
          <mxGeometry x="211" width="119" height="27" as="geometry">
            <mxRectangle width="119" height="27" as="alternateBounds" />
          </mxGeometry>
        </mxCell>
        <mxCell id="S1zFZpBQ4yTUVJXa6N8P-55" style="shape=partialRectangle;html=1;whiteSpace=wrap;collapsible=0;dropTarget=0;pointerEvents=1;fillColor=none;top=0;left=0;bottom=1;right=0;points=[[0,0.5],[1,0.5]];portConstraint=eastwest;fontSize=10;strokeColor=#0F8B8D;fontColor=#143642;" parent="S1zFZpBQ4yTUVJXa6N8P-19" vertex="1">
          <mxGeometry y="219" width="330" height="27" as="geometry" />
        </mxCell>
        <mxCell id="S1zFZpBQ4yTUVJXa6N8P-56" value="customer_id" style="shape=partialRectangle;html=1;whiteSpace=wrap;connectable=0;fillColor=none;top=0;left=0;bottom=0;right=0;overflow=hidden;pointerEvents=1;fontSize=10;strokeColor=#0F8B8D;fontColor=#143642;" parent="S1zFZpBQ4yTUVJXa6N8P-55" vertex="1">
          <mxGeometry width="91" height="27" as="geometry">
            <mxRectangle width="91" height="27" as="alternateBounds" />
          </mxGeometry>
        </mxCell>
        <mxCell id="S1zFZpBQ4yTUVJXa6N8P-57" value="foreign_key (&lt;span style=&quot;text-align: center&quot;&gt;customer&lt;/span&gt;)" style="shape=partialRectangle;html=1;whiteSpace=wrap;connectable=0;fillColor=none;top=0;left=0;bottom=0;right=0;align=left;spacingLeft=6;overflow=hidden;pointerEvents=1;fontSize=10;strokeColor=#0F8B8D;fontColor=#143642;" parent="S1zFZpBQ4yTUVJXa6N8P-55" vertex="1">
          <mxGeometry x="91" width="120" height="27" as="geometry">
            <mxRectangle width="120" height="27" as="alternateBounds" />
          </mxGeometry>
        </mxCell>
        <mxCell id="S1zFZpBQ4yTUVJXa6N8P-67" value="Идентификатор покупателя" style="shape=partialRectangle;html=1;whiteSpace=wrap;connectable=0;fillColor=none;top=0;left=0;bottom=0;right=0;align=left;spacingLeft=6;overflow=hidden;pointerEvents=1;fontSize=10;strokeColor=#0F8B8D;fontColor=#143642;" parent="S1zFZpBQ4yTUVJXa6N8P-55" vertex="1">
          <mxGeometry x="211" width="119" height="27" as="geometry">
            <mxRectangle width="119" height="27" as="alternateBounds" />
          </mxGeometry>
        </mxCell>
        <mxCell id="S1zFZpBQ4yTUVJXa6N8P-58" style="shape=partialRectangle;html=1;whiteSpace=wrap;collapsible=0;dropTarget=0;pointerEvents=1;fillColor=none;top=0;left=0;bottom=1;right=0;points=[[0,0.5],[1,0.5]];portConstraint=eastwest;fontSize=10;strokeColor=#0F8B8D;fontColor=#143642;" parent="S1zFZpBQ4yTUVJXa6N8P-19" vertex="1">
          <mxGeometry y="246" width="330" height="27" as="geometry" />
        </mxCell>
        <mxCell id="S1zFZpBQ4yTUVJXa6N8P-59" value="sku" style="shape=partialRectangle;html=1;whiteSpace=wrap;connectable=0;fillColor=none;top=0;left=0;bottom=0;right=0;overflow=hidden;pointerEvents=1;fontSize=10;strokeColor=#0F8B8D;fontColor=#143642;" parent="S1zFZpBQ4yTUVJXa6N8P-58" vertex="1">
          <mxGeometry width="91" height="27" as="geometry">
            <mxRectangle width="91" height="27" as="alternateBounds" />
          </mxGeometry>
        </mxCell>
        <mxCell id="S1zFZpBQ4yTUVJXa6N8P-60" style="shape=partialRectangle;html=1;whiteSpace=wrap;connectable=0;fillColor=none;top=0;left=0;bottom=0;right=0;align=left;spacingLeft=6;overflow=hidden;pointerEvents=1;fontSize=10;strokeColor=#0F8B8D;fontColor=#143642;" parent="S1zFZpBQ4yTUVJXa6N8P-58" vertex="1">
          <mxGeometry x="91" width="120" height="27" as="geometry">
            <mxRectangle width="120" height="27" as="alternateBounds" />
          </mxGeometry>
        </mxCell>
        <mxCell id="S1zFZpBQ4yTUVJXa6N8P-68" value="Написание товара в сети" style="shape=partialRectangle;html=1;whiteSpace=wrap;connectable=0;fillColor=none;top=0;left=0;bottom=0;right=0;align=left;spacingLeft=6;overflow=hidden;pointerEvents=1;fontSize=10;strokeColor=#0F8B8D;fontColor=#143642;" parent="S1zFZpBQ4yTUVJXa6N8P-58" vertex="1">
          <mxGeometry x="211" width="119" height="27" as="geometry">
            <mxRectangle width="119" height="27" as="alternateBounds" />
          </mxGeometry>
        </mxCell>
        <mxCell id="S1zFZpBQ4yTUVJXa6N8P-282" style="shape=partialRectangle;html=1;whiteSpace=wrap;collapsible=0;dropTarget=0;pointerEvents=1;fillColor=none;top=0;left=0;bottom=1;right=0;points=[[0,0.5],[1,0.5]];portConstraint=eastwest;fontSize=10;strokeColor=#0F8B8D;fontColor=#143642;" parent="S1zFZpBQ4yTUVJXa6N8P-19" vertex="1">
          <mxGeometry y="273" width="330" height="27" as="geometry" />
        </mxCell>
        <mxCell id="S1zFZpBQ4yTUVJXa6N8P-283" value="sku_process" style="shape=partialRectangle;html=1;whiteSpace=wrap;connectable=0;fillColor=none;top=0;left=0;bottom=0;right=0;overflow=hidden;pointerEvents=1;fontSize=10;strokeColor=#0F8B8D;fontColor=#143642;" parent="S1zFZpBQ4yTUVJXa6N8P-282" vertex="1">
          <mxGeometry width="91" height="27" as="geometry">
            <mxRectangle width="91" height="27" as="alternateBounds" />
          </mxGeometry>
        </mxCell>
        <mxCell id="S1zFZpBQ4yTUVJXa6N8P-284" value="&lt;div style=&quot;text-align: center&quot;&gt;&lt;span&gt;foreign_key (sku_catalog&lt;/span&gt;&lt;span&gt;)&lt;/span&gt;&lt;/div&gt;" style="shape=partialRectangle;html=1;whiteSpace=wrap;connectable=0;fillColor=none;top=0;left=0;bottom=0;right=0;align=left;spacingLeft=6;overflow=hidden;pointerEvents=1;fontSize=10;strokeColor=#0F8B8D;fontColor=#143642;" parent="S1zFZpBQ4yTUVJXa6N8P-282" vertex="1">
          <mxGeometry x="91" width="120" height="27" as="geometry">
            <mxRectangle width="120" height="27" as="alternateBounds" />
          </mxGeometry>
        </mxCell>
        <mxCell id="S1zFZpBQ4yTUVJXa6N8P-285" value="Обработанное написание товара" style="shape=partialRectangle;html=1;whiteSpace=wrap;connectable=0;fillColor=none;top=0;left=0;bottom=0;right=0;align=left;spacingLeft=6;overflow=hidden;pointerEvents=1;fontSize=10;strokeColor=#0F8B8D;fontColor=#143642;" parent="S1zFZpBQ4yTUVJXa6N8P-282" vertex="1">
          <mxGeometry x="211" width="119" height="27" as="geometry">
            <mxRectangle width="119" height="27" as="alternateBounds" />
          </mxGeometry>
        </mxCell>
        <mxCell id="S1zFZpBQ4yTUVJXa6N8P-290" style="shape=partialRectangle;html=1;whiteSpace=wrap;collapsible=0;dropTarget=0;pointerEvents=1;fillColor=none;top=0;left=0;bottom=1;right=0;points=[[0,0.5],[1,0.5]];portConstraint=eastwest;fontSize=10;strokeColor=#0F8B8D;fontColor=#143642;" parent="S1zFZpBQ4yTUVJXa6N8P-19" vertex="1">
          <mxGeometry y="300" width="330" height="27" as="geometry" />
        </mxCell>
        <mxCell id="S1zFZpBQ4yTUVJXa6N8P-291" value="sku_price" style="shape=partialRectangle;html=1;whiteSpace=wrap;connectable=0;fillColor=none;top=0;left=0;bottom=0;right=0;overflow=hidden;pointerEvents=1;fontSize=10;strokeColor=#0F8B8D;fontColor=#143642;" parent="S1zFZpBQ4yTUVJXa6N8P-290" vertex="1">
          <mxGeometry width="91" height="27" as="geometry">
            <mxRectangle width="91" height="27" as="alternateBounds" />
          </mxGeometry>
        </mxCell>
        <mxCell id="S1zFZpBQ4yTUVJXa6N8P-292" style="shape=partialRectangle;html=1;whiteSpace=wrap;connectable=0;fillColor=none;top=0;left=0;bottom=0;right=0;align=left;spacingLeft=6;overflow=hidden;pointerEvents=1;fontSize=10;strokeColor=#0F8B8D;fontColor=#143642;" parent="S1zFZpBQ4yTUVJXa6N8P-290" vertex="1">
          <mxGeometry x="91" width="120" height="27" as="geometry">
            <mxRectangle width="120" height="27" as="alternateBounds" />
          </mxGeometry>
        </mxCell>
        <mxCell id="S1zFZpBQ4yTUVJXa6N8P-293" value="Цена позиции" style="shape=partialRectangle;html=1;whiteSpace=wrap;connectable=0;fillColor=none;top=0;left=0;bottom=0;right=0;align=left;spacingLeft=6;overflow=hidden;pointerEvents=1;fontSize=10;strokeColor=#0F8B8D;fontColor=#143642;" parent="S1zFZpBQ4yTUVJXa6N8P-290" vertex="1">
          <mxGeometry x="211" width="119" height="27" as="geometry">
            <mxRectangle width="119" height="27" as="alternateBounds" />
          </mxGeometry>
        </mxCell>
        <mxCell id="S1zFZpBQ4yTUVJXa6N8P-294" style="shape=partialRectangle;html=1;whiteSpace=wrap;collapsible=0;dropTarget=0;pointerEvents=1;fillColor=none;top=0;left=0;bottom=1;right=0;points=[[0,0.5],[1,0.5]];portConstraint=eastwest;fontSize=10;strokeColor=#0F8B8D;fontColor=#143642;" parent="S1zFZpBQ4yTUVJXa6N8P-19" vertex="1">
          <mxGeometry y="327" width="330" height="27" as="geometry" />
        </mxCell>
        <mxCell id="S1zFZpBQ4yTUVJXa6N8P-295" value="sku_quantity" style="shape=partialRectangle;html=1;whiteSpace=wrap;connectable=0;fillColor=none;top=0;left=0;bottom=0;right=0;overflow=hidden;pointerEvents=1;fontSize=10;strokeColor=#0F8B8D;fontColor=#143642;" parent="S1zFZpBQ4yTUVJXa6N8P-294" vertex="1">
          <mxGeometry width="91" height="27" as="geometry">
            <mxRectangle width="91" height="27" as="alternateBounds" />
          </mxGeometry>
        </mxCell>
        <mxCell id="S1zFZpBQ4yTUVJXa6N8P-296" style="shape=partialRectangle;html=1;whiteSpace=wrap;connectable=0;fillColor=none;top=0;left=0;bottom=0;right=0;align=left;spacingLeft=6;overflow=hidden;pointerEvents=1;fontSize=10;strokeColor=#0F8B8D;fontColor=#143642;" parent="S1zFZpBQ4yTUVJXa6N8P-294" vertex="1">
          <mxGeometry x="91" width="120" height="27" as="geometry">
            <mxRectangle width="120" height="27" as="alternateBounds" />
          </mxGeometry>
        </mxCell>
        <mxCell id="S1zFZpBQ4yTUVJXa6N8P-297" value="Количество товарной позиции" style="shape=partialRectangle;html=1;whiteSpace=wrap;connectable=0;fillColor=none;top=0;left=0;bottom=0;right=0;align=left;spacingLeft=6;overflow=hidden;pointerEvents=1;fontSize=10;strokeColor=#0F8B8D;fontColor=#143642;" parent="S1zFZpBQ4yTUVJXa6N8P-294" vertex="1">
          <mxGeometry x="211" width="119" height="27" as="geometry">
            <mxRectangle width="119" height="27" as="alternateBounds" />
          </mxGeometry>
        </mxCell>
        <mxCell id="S1zFZpBQ4yTUVJXa6N8P-298" style="shape=partialRectangle;html=1;whiteSpace=wrap;collapsible=0;dropTarget=0;pointerEvents=1;fillColor=none;top=0;left=0;bottom=1;right=0;points=[[0,0.5],[1,0.5]];portConstraint=eastwest;fontSize=10;strokeColor=#0F8B8D;fontColor=#143642;" parent="S1zFZpBQ4yTUVJXa6N8P-19" vertex="1">
          <mxGeometry y="354" width="330" height="26" as="geometry" />
        </mxCell>
        <mxCell id="S1zFZpBQ4yTUVJXa6N8P-299" value="sku_sum" style="shape=partialRectangle;html=1;whiteSpace=wrap;connectable=0;fillColor=none;top=0;left=0;bottom=0;right=0;overflow=hidden;pointerEvents=1;fontSize=10;strokeColor=#0F8B8D;fontColor=#143642;" parent="S1zFZpBQ4yTUVJXa6N8P-298" vertex="1">
          <mxGeometry width="91" height="26" as="geometry">
            <mxRectangle width="91" height="26" as="alternateBounds" />
          </mxGeometry>
        </mxCell>
        <mxCell id="S1zFZpBQ4yTUVJXa6N8P-300" style="shape=partialRectangle;html=1;whiteSpace=wrap;connectable=0;fillColor=none;top=0;left=0;bottom=0;right=0;align=left;spacingLeft=6;overflow=hidden;pointerEvents=1;fontSize=10;strokeColor=#0F8B8D;fontColor=#143642;" parent="S1zFZpBQ4yTUVJXa6N8P-298" vertex="1">
          <mxGeometry x="91" width="120" height="26" as="geometry">
            <mxRectangle width="120" height="26" as="alternateBounds" />
          </mxGeometry>
        </mxCell>
        <mxCell id="S1zFZpBQ4yTUVJXa6N8P-301" value="Сумма товарной позиции" style="shape=partialRectangle;html=1;whiteSpace=wrap;connectable=0;fillColor=none;top=0;left=0;bottom=0;right=0;align=left;spacingLeft=6;overflow=hidden;pointerEvents=1;fontSize=10;strokeColor=#0F8B8D;fontColor=#143642;" parent="S1zFZpBQ4yTUVJXa6N8P-298" vertex="1">
          <mxGeometry x="211" width="119" height="26" as="geometry">
            <mxRectangle width="119" height="26" as="alternateBounds" />
          </mxGeometry>
        </mxCell>
        <mxCell id="S1zFZpBQ4yTUVJXa6N8P-302" style="shape=partialRectangle;html=1;whiteSpace=wrap;collapsible=0;dropTarget=0;pointerEvents=1;fillColor=none;top=0;left=0;bottom=1;right=0;points=[[0,0.5],[1,0.5]];portConstraint=eastwest;fontSize=10;strokeColor=#0F8B8D;fontColor=#143642;" parent="S1zFZpBQ4yTUVJXa6N8P-19" vertex="1">
          <mxGeometry y="380" width="330" height="27" as="geometry" />
        </mxCell>
        <mxCell id="S1zFZpBQ4yTUVJXa6N8P-303" value="data_source" style="shape=partialRectangle;html=1;whiteSpace=wrap;connectable=0;fillColor=none;top=0;left=0;bottom=0;right=0;overflow=hidden;pointerEvents=1;fontSize=10;strokeColor=#0F8B8D;fontColor=#143642;" parent="S1zFZpBQ4yTUVJXa6N8P-302" vertex="1">
          <mxGeometry width="91" height="27" as="geometry">
            <mxRectangle width="91" height="27" as="alternateBounds" />
          </mxGeometry>
        </mxCell>
        <mxCell id="S1zFZpBQ4yTUVJXa6N8P-304" style="shape=partialRectangle;html=1;whiteSpace=wrap;connectable=0;fillColor=none;top=0;left=0;bottom=0;right=0;align=left;spacingLeft=6;overflow=hidden;pointerEvents=1;fontSize=10;strokeColor=#0F8B8D;fontColor=#143642;" parent="S1zFZpBQ4yTUVJXa6N8P-302" vertex="1">
          <mxGeometry x="91" width="120" height="27" as="geometry">
            <mxRectangle width="120" height="27" as="alternateBounds" />
          </mxGeometry>
        </mxCell>
        <mxCell id="S1zFZpBQ4yTUVJXa6N8P-305" value="Источник данных" style="shape=partialRectangle;html=1;whiteSpace=wrap;connectable=0;fillColor=none;top=0;left=0;bottom=0;right=0;align=left;spacingLeft=6;overflow=hidden;pointerEvents=1;fontSize=10;strokeColor=#0F8B8D;fontColor=#143642;" parent="S1zFZpBQ4yTUVJXa6N8P-302" vertex="1">
          <mxGeometry x="211" width="119" height="27" as="geometry">
            <mxRectangle width="119" height="27" as="alternateBounds" />
          </mxGeometry>
        </mxCell>
        <mxCell id="S1zFZpBQ4yTUVJXa6N8P-306" style="shape=partialRectangle;html=1;whiteSpace=wrap;collapsible=0;dropTarget=0;pointerEvents=1;fillColor=none;top=0;left=0;bottom=1;right=0;points=[[0,0.5],[1,0.5]];portConstraint=eastwest;fontSize=10;strokeColor=#0F8B8D;fontColor=#143642;" parent="S1zFZpBQ4yTUVJXa6N8P-19" vertex="1">
          <mxGeometry y="407" width="330" height="27" as="geometry" />
        </mxCell>
        <mxCell id="S1zFZpBQ4yTUVJXa6N8P-307" value="date_add_rows" style="shape=partialRectangle;html=1;whiteSpace=wrap;connectable=0;fillColor=none;top=0;left=0;bottom=0;right=0;overflow=hidden;pointerEvents=1;fontSize=10;strokeColor=#0F8B8D;fontColor=#143642;" parent="S1zFZpBQ4yTUVJXa6N8P-306" vertex="1">
          <mxGeometry width="91" height="27" as="geometry">
            <mxRectangle width="91" height="27" as="alternateBounds" />
          </mxGeometry>
        </mxCell>
        <mxCell id="S1zFZpBQ4yTUVJXa6N8P-308" style="shape=partialRectangle;html=1;whiteSpace=wrap;connectable=0;fillColor=none;top=0;left=0;bottom=0;right=0;align=left;spacingLeft=6;overflow=hidden;pointerEvents=1;fontSize=10;strokeColor=#0F8B8D;fontColor=#143642;" parent="S1zFZpBQ4yTUVJXa6N8P-306" vertex="1">
          <mxGeometry x="91" width="120" height="27" as="geometry">
            <mxRectangle width="120" height="27" as="alternateBounds" />
          </mxGeometry>
        </mxCell>
        <mxCell id="S1zFZpBQ4yTUVJXa6N8P-309" value="Дата внесения строки в базу данных" style="shape=partialRectangle;html=1;whiteSpace=wrap;connectable=0;fillColor=none;top=0;left=0;bottom=0;right=0;align=left;spacingLeft=6;overflow=hidden;pointerEvents=1;fontSize=10;strokeColor=#0F8B8D;fontColor=#143642;" parent="S1zFZpBQ4yTUVJXa6N8P-306" vertex="1">
          <mxGeometry x="211" width="119" height="27" as="geometry">
            <mxRectangle width="119" height="27" as="alternateBounds" />
          </mxGeometry>
        </mxCell>
        <mxCell id="S1zFZpBQ4yTUVJXa6N8P-218" value="chain" style="shape=table;startSize=30;container=1;collapsible=0;childLayout=tableLayout;fixedRows=1;rowLines=0;fontStyle=1;align=center;pointerEvents=1;rounded=0;shadow=0;glass=0;sketch=0;swimlaneFillColor=default;fontSize=10;fillColor=#FAE5C7;strokeColor=#0F8B8D;fontColor=#143642;" parent="WIyWlLk6GJQsqaUBKTNV-1" vertex="1">
          <mxGeometry x="10" y="180" width="346" height="138" as="geometry" />
        </mxCell>
        <mxCell id="S1zFZpBQ4yTUVJXa6N8P-219" value="" style="shape=partialRectangle;html=1;whiteSpace=wrap;collapsible=0;dropTarget=0;pointerEvents=1;fillColor=none;top=0;left=0;bottom=1;right=0;points=[[0,0.5],[1,0.5]];portConstraint=eastwest;fontSize=10;spacing=2;strokeColor=#0F8B8D;fontColor=#143642;" parent="S1zFZpBQ4yTUVJXa6N8P-218" vertex="1">
          <mxGeometry y="30" width="346" height="27" as="geometry" />
        </mxCell>
        <mxCell id="S1zFZpBQ4yTUVJXa6N8P-220" value="chain_inn" style="shape=partialRectangle;html=1;whiteSpace=wrap;connectable=0;fillColor=none;top=0;left=0;bottom=0;right=0;overflow=hidden;pointerEvents=1;fontSize=10;strokeColor=#0F8B8D;fontColor=#143642;" parent="S1zFZpBQ4yTUVJXa6N8P-219" vertex="1">
          <mxGeometry width="95" height="27" as="geometry">
            <mxRectangle width="95" height="27" as="alternateBounds" />
          </mxGeometry>
        </mxCell>
        <mxCell id="S1zFZpBQ4yTUVJXa6N8P-221" value="primary_key" style="shape=partialRectangle;html=1;whiteSpace=wrap;connectable=0;fillColor=none;top=0;left=0;bottom=0;right=0;align=left;spacingLeft=6;overflow=hidden;pointerEvents=1;fontSize=10;strokeColor=#0F8B8D;fontColor=#143642;" parent="S1zFZpBQ4yTUVJXa6N8P-219" vertex="1">
          <mxGeometry x="95" width="126" height="27" as="geometry">
            <mxRectangle width="126" height="27" as="alternateBounds" />
          </mxGeometry>
        </mxCell>
        <mxCell id="S1zFZpBQ4yTUVJXa6N8P-222" value="ИНН сети" style="shape=partialRectangle;html=1;whiteSpace=wrap;connectable=0;fillColor=none;top=0;left=0;bottom=0;right=0;align=left;spacingLeft=6;overflow=hidden;pointerEvents=1;fontSize=10;strokeColor=#0F8B8D;fontColor=#143642;" parent="S1zFZpBQ4yTUVJXa6N8P-219" vertex="1">
          <mxGeometry x="221" width="125" height="27" as="geometry">
            <mxRectangle width="125" height="27" as="alternateBounds" />
          </mxGeometry>
        </mxCell>
        <mxCell id="S1zFZpBQ4yTUVJXa6N8P-223" value="" style="shape=partialRectangle;html=1;whiteSpace=wrap;collapsible=0;dropTarget=0;pointerEvents=1;fillColor=none;top=0;left=0;bottom=1;right=0;points=[[0,0.5],[1,0.5]];portConstraint=eastwest;fontSize=10;strokeColor=#0F8B8D;fontColor=#143642;" parent="S1zFZpBQ4yTUVJXa6N8P-218" vertex="1">
          <mxGeometry y="57" width="346" height="27" as="geometry" />
        </mxCell>
        <mxCell id="S1zFZpBQ4yTUVJXa6N8P-224" value="chain_name" style="shape=partialRectangle;html=1;whiteSpace=wrap;connectable=0;fillColor=none;top=0;left=0;bottom=0;right=0;overflow=hidden;pointerEvents=1;fontSize=10;strokeColor=#0F8B8D;fontColor=#143642;" parent="S1zFZpBQ4yTUVJXa6N8P-223" vertex="1">
          <mxGeometry width="95" height="27" as="geometry">
            <mxRectangle width="95" height="27" as="alternateBounds" />
          </mxGeometry>
        </mxCell>
        <mxCell id="S1zFZpBQ4yTUVJXa6N8P-225" value="" style="shape=partialRectangle;html=1;whiteSpace=wrap;connectable=0;fillColor=none;top=0;left=0;bottom=0;right=0;align=left;spacingLeft=6;overflow=hidden;pointerEvents=1;fontSize=10;strokeColor=#0F8B8D;fontColor=#143642;" parent="S1zFZpBQ4yTUVJXa6N8P-223" vertex="1">
          <mxGeometry x="95" width="126" height="27" as="geometry">
            <mxRectangle width="126" height="27" as="alternateBounds" />
          </mxGeometry>
        </mxCell>
        <mxCell id="S1zFZpBQ4yTUVJXa6N8P-226" value="Название сети или магазина&amp;nbsp;" style="shape=partialRectangle;html=1;whiteSpace=wrap;connectable=0;fillColor=none;top=0;left=0;bottom=0;right=0;align=left;spacingLeft=6;overflow=hidden;pointerEvents=1;fontSize=10;strokeColor=#0F8B8D;fontColor=#143642;" parent="S1zFZpBQ4yTUVJXa6N8P-223" vertex="1">
          <mxGeometry x="221" width="125" height="27" as="geometry">
            <mxRectangle width="125" height="27" as="alternateBounds" />
          </mxGeometry>
        </mxCell>
        <mxCell id="S1zFZpBQ4yTUVJXa6N8P-227" value="" style="shape=partialRectangle;html=1;whiteSpace=wrap;collapsible=0;dropTarget=0;pointerEvents=1;fillColor=none;top=0;left=0;bottom=1;right=0;points=[[0,0.5],[1,0.5]];portConstraint=eastwest;fontSize=10;strokeColor=#0F8B8D;fontColor=#143642;" parent="S1zFZpBQ4yTUVJXa6N8P-218" vertex="1">
          <mxGeometry y="84" width="346" height="27" as="geometry" />
        </mxCell>
        <mxCell id="S1zFZpBQ4yTUVJXa6N8P-228" value="chain_format" style="shape=partialRectangle;html=1;whiteSpace=wrap;connectable=0;fillColor=none;top=0;left=0;bottom=0;right=0;overflow=hidden;pointerEvents=1;fontSize=10;strokeColor=#0F8B8D;fontColor=#143642;" parent="S1zFZpBQ4yTUVJXa6N8P-227" vertex="1">
          <mxGeometry width="95" height="27" as="geometry">
            <mxRectangle width="95" height="27" as="alternateBounds" />
          </mxGeometry>
        </mxCell>
        <mxCell id="S1zFZpBQ4yTUVJXa6N8P-229" value="" style="shape=partialRectangle;html=1;whiteSpace=wrap;connectable=0;fillColor=none;top=0;left=0;bottom=0;right=0;align=left;spacingLeft=6;overflow=hidden;pointerEvents=1;fontSize=10;strokeColor=#0F8B8D;fontColor=#143642;" parent="S1zFZpBQ4yTUVJXa6N8P-227" vertex="1">
          <mxGeometry x="95" width="126" height="27" as="geometry">
            <mxRectangle width="126" height="27" as="alternateBounds" />
          </mxGeometry>
        </mxCell>
        <mxCell id="S1zFZpBQ4yTUVJXa6N8P-230" value="Формат сети (гипер, супер и т.д.)" style="shape=partialRectangle;html=1;whiteSpace=wrap;connectable=0;fillColor=none;top=0;left=0;bottom=0;right=0;align=left;spacingLeft=6;overflow=hidden;pointerEvents=1;fontSize=10;strokeColor=#0F8B8D;fontColor=#143642;" parent="S1zFZpBQ4yTUVJXa6N8P-227" vertex="1">
          <mxGeometry x="221" width="125" height="27" as="geometry">
            <mxRectangle width="125" height="27" as="alternateBounds" />
          </mxGeometry>
        </mxCell>
        <mxCell id="S1zFZpBQ4yTUVJXa6N8P-331" style="shape=partialRectangle;html=1;whiteSpace=wrap;collapsible=0;dropTarget=0;pointerEvents=1;fillColor=none;top=0;left=0;bottom=1;right=0;points=[[0,0.5],[1,0.5]];portConstraint=eastwest;fontSize=10;strokeColor=#0F8B8D;fontColor=#143642;" parent="S1zFZpBQ4yTUVJXa6N8P-218" vertex="1">
          <mxGeometry y="111" width="346" height="27" as="geometry" />
        </mxCell>
        <mxCell id="S1zFZpBQ4yTUVJXa6N8P-332" value="&lt;span&gt;date_add_rows&lt;/span&gt;" style="shape=partialRectangle;html=1;whiteSpace=wrap;connectable=0;fillColor=none;top=0;left=0;bottom=0;right=0;overflow=hidden;pointerEvents=1;fontSize=10;strokeColor=#0F8B8D;fontColor=#143642;" parent="S1zFZpBQ4yTUVJXa6N8P-331" vertex="1">
          <mxGeometry width="95" height="27" as="geometry">
            <mxRectangle width="95" height="27" as="alternateBounds" />
          </mxGeometry>
        </mxCell>
        <mxCell id="S1zFZpBQ4yTUVJXa6N8P-333" style="shape=partialRectangle;html=1;whiteSpace=wrap;connectable=0;fillColor=none;top=0;left=0;bottom=0;right=0;align=left;spacingLeft=6;overflow=hidden;pointerEvents=1;fontSize=10;strokeColor=#0F8B8D;fontColor=#143642;" parent="S1zFZpBQ4yTUVJXa6N8P-331" vertex="1">
          <mxGeometry x="95" width="126" height="27" as="geometry">
            <mxRectangle width="126" height="27" as="alternateBounds" />
          </mxGeometry>
        </mxCell>
        <mxCell id="S1zFZpBQ4yTUVJXa6N8P-334" value="&lt;span&gt;Дата внесения строки в базу данных&lt;/span&gt;" style="shape=partialRectangle;html=1;whiteSpace=wrap;connectable=0;fillColor=none;top=0;left=0;bottom=0;right=0;align=left;spacingLeft=6;overflow=hidden;pointerEvents=1;fontSize=10;strokeColor=#0F8B8D;fontColor=#143642;" parent="S1zFZpBQ4yTUVJXa6N8P-331" vertex="1">
          <mxGeometry x="221" width="125" height="27" as="geometry">
            <mxRectangle width="125" height="27" as="alternateBounds" />
          </mxGeometry>
        </mxCell>
        <mxCell id="S1zFZpBQ4yTUVJXa6N8P-259" value="customer" style="shape=table;startSize=30;container=1;collapsible=0;childLayout=tableLayout;fixedRows=1;rowLines=0;fontStyle=1;align=center;pointerEvents=1;rounded=0;shadow=0;glass=0;sketch=0;swimlaneFillColor=default;fontSize=10;fillColor=#FAE5C7;strokeColor=#0F8B8D;fontColor=#143642;" parent="WIyWlLk6GJQsqaUBKTNV-1" vertex="1">
          <mxGeometry x="10" y="450" width="346" height="192" as="geometry" />
        </mxCell>
        <mxCell id="S1zFZpBQ4yTUVJXa6N8P-260" value="" style="shape=partialRectangle;html=1;whiteSpace=wrap;collapsible=0;dropTarget=0;pointerEvents=1;fillColor=none;top=0;left=0;bottom=1;right=0;points=[[0,0.5],[1,0.5]];portConstraint=eastwest;fontSize=10;spacing=2;strokeColor=#0F8B8D;fontColor=#143642;" parent="S1zFZpBQ4yTUVJXa6N8P-259" vertex="1">
          <mxGeometry y="30" width="346" height="27" as="geometry" />
        </mxCell>
        <mxCell id="S1zFZpBQ4yTUVJXa6N8P-261" value="customer_id" style="shape=partialRectangle;html=1;whiteSpace=wrap;connectable=0;fillColor=none;top=0;left=0;bottom=0;right=0;overflow=hidden;pointerEvents=1;fontSize=10;strokeColor=#0F8B8D;fontColor=#143642;" parent="S1zFZpBQ4yTUVJXa6N8P-260" vertex="1">
          <mxGeometry width="95" height="27" as="geometry">
            <mxRectangle width="95" height="27" as="alternateBounds" />
          </mxGeometry>
        </mxCell>
        <mxCell id="S1zFZpBQ4yTUVJXa6N8P-262" value="primary_key" style="shape=partialRectangle;html=1;whiteSpace=wrap;connectable=0;fillColor=none;top=0;left=0;bottom=0;right=0;align=left;spacingLeft=6;overflow=hidden;pointerEvents=1;fontSize=10;strokeColor=#0F8B8D;fontColor=#143642;" parent="S1zFZpBQ4yTUVJXa6N8P-260" vertex="1">
          <mxGeometry x="95" width="126" height="27" as="geometry">
            <mxRectangle width="126" height="27" as="alternateBounds" />
          </mxGeometry>
        </mxCell>
        <mxCell id="S1zFZpBQ4yTUVJXa6N8P-263" value="" style="shape=partialRectangle;html=1;whiteSpace=wrap;connectable=0;fillColor=none;top=0;left=0;bottom=0;right=0;align=left;spacingLeft=6;overflow=hidden;pointerEvents=1;fontSize=10;strokeColor=#0F8B8D;fontColor=#143642;" parent="S1zFZpBQ4yTUVJXa6N8P-260" vertex="1">
          <mxGeometry x="221" width="125" height="27" as="geometry">
            <mxRectangle width="125" height="27" as="alternateBounds" />
          </mxGeometry>
        </mxCell>
        <mxCell id="S1zFZpBQ4yTUVJXa6N8P-264" value="" style="shape=partialRectangle;html=1;whiteSpace=wrap;collapsible=0;dropTarget=0;pointerEvents=1;fillColor=none;top=0;left=0;bottom=1;right=0;points=[[0,0.5],[1,0.5]];portConstraint=eastwest;fontSize=10;strokeColor=#0F8B8D;fontColor=#143642;" parent="S1zFZpBQ4yTUVJXa6N8P-259" vertex="1">
          <mxGeometry y="57" width="346" height="27" as="geometry" />
        </mxCell>
        <mxCell id="S1zFZpBQ4yTUVJXa6N8P-265" value="customer_sex" style="shape=partialRectangle;html=1;whiteSpace=wrap;connectable=0;fillColor=none;top=0;left=0;bottom=0;right=0;overflow=hidden;pointerEvents=1;fontSize=10;strokeColor=#0F8B8D;fontColor=#143642;" parent="S1zFZpBQ4yTUVJXa6N8P-264" vertex="1">
          <mxGeometry width="95" height="27" as="geometry">
            <mxRectangle width="95" height="27" as="alternateBounds" />
          </mxGeometry>
        </mxCell>
        <mxCell id="S1zFZpBQ4yTUVJXa6N8P-266" value="" style="shape=partialRectangle;html=1;whiteSpace=wrap;connectable=0;fillColor=none;top=0;left=0;bottom=0;right=0;align=left;spacingLeft=6;overflow=hidden;pointerEvents=1;fontSize=10;strokeColor=#0F8B8D;fontColor=#143642;" parent="S1zFZpBQ4yTUVJXa6N8P-264" vertex="1">
          <mxGeometry x="95" width="126" height="27" as="geometry">
            <mxRectangle width="126" height="27" as="alternateBounds" />
          </mxGeometry>
        </mxCell>
        <mxCell id="S1zFZpBQ4yTUVJXa6N8P-267" value="Пол покупателя" style="shape=partialRectangle;html=1;whiteSpace=wrap;connectable=0;fillColor=none;top=0;left=0;bottom=0;right=0;align=left;spacingLeft=6;overflow=hidden;pointerEvents=1;fontSize=10;strokeColor=#0F8B8D;fontColor=#143642;" parent="S1zFZpBQ4yTUVJXa6N8P-264" vertex="1">
          <mxGeometry x="221" width="125" height="27" as="geometry">
            <mxRectangle width="125" height="27" as="alternateBounds" />
          </mxGeometry>
        </mxCell>
        <mxCell id="S1zFZpBQ4yTUVJXa6N8P-268" value="" style="shape=partialRectangle;html=1;whiteSpace=wrap;collapsible=0;dropTarget=0;pointerEvents=1;fillColor=none;top=0;left=0;bottom=1;right=0;points=[[0,0.5],[1,0.5]];portConstraint=eastwest;fontSize=10;strokeColor=#0F8B8D;fontColor=#143642;" parent="S1zFZpBQ4yTUVJXa6N8P-259" vertex="1">
          <mxGeometry y="84" width="346" height="27" as="geometry" />
        </mxCell>
        <mxCell id="S1zFZpBQ4yTUVJXa6N8P-269" value="customer_age" style="shape=partialRectangle;html=1;whiteSpace=wrap;connectable=0;fillColor=none;top=0;left=0;bottom=0;right=0;overflow=hidden;pointerEvents=1;fontSize=10;strokeColor=#0F8B8D;fontColor=#143642;" parent="S1zFZpBQ4yTUVJXa6N8P-268" vertex="1">
          <mxGeometry width="95" height="27" as="geometry">
            <mxRectangle width="95" height="27" as="alternateBounds" />
          </mxGeometry>
        </mxCell>
        <mxCell id="S1zFZpBQ4yTUVJXa6N8P-270" value="" style="shape=partialRectangle;html=1;whiteSpace=wrap;connectable=0;fillColor=none;top=0;left=0;bottom=0;right=0;align=left;spacingLeft=6;overflow=hidden;pointerEvents=1;fontSize=10;strokeColor=#0F8B8D;fontColor=#143642;" parent="S1zFZpBQ4yTUVJXa6N8P-268" vertex="1">
          <mxGeometry x="95" width="126" height="27" as="geometry">
            <mxRectangle width="126" height="27" as="alternateBounds" />
          </mxGeometry>
        </mxCell>
        <mxCell id="S1zFZpBQ4yTUVJXa6N8P-271" value="Возраст покупателя" style="shape=partialRectangle;html=1;whiteSpace=wrap;connectable=0;fillColor=none;top=0;left=0;bottom=0;right=0;align=left;spacingLeft=6;overflow=hidden;pointerEvents=1;fontSize=10;strokeColor=#0F8B8D;fontColor=#143642;" parent="S1zFZpBQ4yTUVJXa6N8P-268" vertex="1">
          <mxGeometry x="221" width="125" height="27" as="geometry">
            <mxRectangle width="125" height="27" as="alternateBounds" />
          </mxGeometry>
        </mxCell>
        <mxCell id="S1zFZpBQ4yTUVJXa6N8P-278" style="shape=partialRectangle;html=1;whiteSpace=wrap;collapsible=0;dropTarget=0;pointerEvents=1;fillColor=none;top=0;left=0;bottom=1;right=0;points=[[0,0.5],[1,0.5]];portConstraint=eastwest;fontSize=10;strokeColor=#0F8B8D;fontColor=#143642;" parent="S1zFZpBQ4yTUVJXa6N8P-259" vertex="1">
          <mxGeometry y="111" width="346" height="27" as="geometry" />
        </mxCell>
        <mxCell id="S1zFZpBQ4yTUVJXa6N8P-279" value="&lt;span&gt;customer_phone&lt;/span&gt;" style="shape=partialRectangle;html=1;whiteSpace=wrap;connectable=0;fillColor=none;top=0;left=0;bottom=0;right=0;overflow=hidden;pointerEvents=1;fontSize=10;strokeColor=#0F8B8D;fontColor=#143642;" parent="S1zFZpBQ4yTUVJXa6N8P-278" vertex="1">
          <mxGeometry width="95" height="27" as="geometry">
            <mxRectangle width="95" height="27" as="alternateBounds" />
          </mxGeometry>
        </mxCell>
        <mxCell id="S1zFZpBQ4yTUVJXa6N8P-280" style="shape=partialRectangle;html=1;whiteSpace=wrap;connectable=0;fillColor=none;top=0;left=0;bottom=0;right=0;align=left;spacingLeft=6;overflow=hidden;pointerEvents=1;fontSize=10;strokeColor=#0F8B8D;fontColor=#143642;" parent="S1zFZpBQ4yTUVJXa6N8P-278" vertex="1">
          <mxGeometry x="95" width="126" height="27" as="geometry">
            <mxRectangle width="126" height="27" as="alternateBounds" />
          </mxGeometry>
        </mxCell>
        <mxCell id="S1zFZpBQ4yTUVJXa6N8P-281" value="Номер телефона" style="shape=partialRectangle;html=1;whiteSpace=wrap;connectable=0;fillColor=none;top=0;left=0;bottom=0;right=0;align=left;spacingLeft=6;overflow=hidden;pointerEvents=1;fontSize=10;strokeColor=#0F8B8D;fontColor=#143642;" parent="S1zFZpBQ4yTUVJXa6N8P-278" vertex="1">
          <mxGeometry x="221" width="125" height="27" as="geometry">
            <mxRectangle width="125" height="27" as="alternateBounds" />
          </mxGeometry>
        </mxCell>
        <mxCell id="S1zFZpBQ4yTUVJXa6N8P-274" style="shape=partialRectangle;html=1;whiteSpace=wrap;collapsible=0;dropTarget=0;pointerEvents=1;fillColor=none;top=0;left=0;bottom=1;right=0;points=[[0,0.5],[1,0.5]];portConstraint=eastwest;fontSize=10;strokeColor=#0F8B8D;fontColor=#143642;" parent="S1zFZpBQ4yTUVJXa6N8P-259" vertex="1">
          <mxGeometry y="138" width="346" height="27" as="geometry" />
        </mxCell>
        <mxCell id="S1zFZpBQ4yTUVJXa6N8P-275" value="customer_email" style="shape=partialRectangle;html=1;whiteSpace=wrap;connectable=0;fillColor=none;top=0;left=0;bottom=0;right=0;overflow=hidden;pointerEvents=1;fontSize=10;strokeColor=#0F8B8D;fontColor=#143642;" parent="S1zFZpBQ4yTUVJXa6N8P-274" vertex="1">
          <mxGeometry width="95" height="27" as="geometry">
            <mxRectangle width="95" height="27" as="alternateBounds" />
          </mxGeometry>
        </mxCell>
        <mxCell id="S1zFZpBQ4yTUVJXa6N8P-276" style="shape=partialRectangle;html=1;whiteSpace=wrap;connectable=0;fillColor=none;top=0;left=0;bottom=0;right=0;align=left;spacingLeft=6;overflow=hidden;pointerEvents=1;fontSize=10;strokeColor=#0F8B8D;fontColor=#143642;" parent="S1zFZpBQ4yTUVJXa6N8P-274" vertex="1">
          <mxGeometry x="95" width="126" height="27" as="geometry">
            <mxRectangle width="126" height="27" as="alternateBounds" />
          </mxGeometry>
        </mxCell>
        <mxCell id="S1zFZpBQ4yTUVJXa6N8P-277" value="Электронная почта" style="shape=partialRectangle;html=1;whiteSpace=wrap;connectable=0;fillColor=none;top=0;left=0;bottom=0;right=0;align=left;spacingLeft=6;overflow=hidden;pointerEvents=1;fontSize=10;strokeColor=#0F8B8D;fontColor=#143642;" parent="S1zFZpBQ4yTUVJXa6N8P-274" vertex="1">
          <mxGeometry x="221" width="125" height="27" as="geometry">
            <mxRectangle width="125" height="27" as="alternateBounds" />
          </mxGeometry>
        </mxCell>
        <mxCell id="S1zFZpBQ4yTUVJXa6N8P-335" style="shape=partialRectangle;html=1;whiteSpace=wrap;collapsible=0;dropTarget=0;pointerEvents=1;fillColor=none;top=0;left=0;bottom=1;right=0;points=[[0,0.5],[1,0.5]];portConstraint=eastwest;fontSize=10;strokeColor=#0F8B8D;fontColor=#143642;" parent="S1zFZpBQ4yTUVJXa6N8P-259" vertex="1">
          <mxGeometry y="165" width="346" height="27" as="geometry" />
        </mxCell>
        <mxCell id="S1zFZpBQ4yTUVJXa6N8P-336" value="&lt;span&gt;date_add_rows&lt;/span&gt;" style="shape=partialRectangle;html=1;whiteSpace=wrap;connectable=0;fillColor=none;top=0;left=0;bottom=0;right=0;overflow=hidden;pointerEvents=1;fontSize=10;strokeColor=#0F8B8D;fontColor=#143642;" parent="S1zFZpBQ4yTUVJXa6N8P-335" vertex="1">
          <mxGeometry width="95" height="27" as="geometry">
            <mxRectangle width="95" height="27" as="alternateBounds" />
          </mxGeometry>
        </mxCell>
        <mxCell id="S1zFZpBQ4yTUVJXa6N8P-337" style="shape=partialRectangle;html=1;whiteSpace=wrap;connectable=0;fillColor=none;top=0;left=0;bottom=0;right=0;align=left;spacingLeft=6;overflow=hidden;pointerEvents=1;fontSize=10;strokeColor=#0F8B8D;fontColor=#143642;" parent="S1zFZpBQ4yTUVJXa6N8P-335" vertex="1">
          <mxGeometry x="95" width="126" height="27" as="geometry">
            <mxRectangle width="126" height="27" as="alternateBounds" />
          </mxGeometry>
        </mxCell>
        <mxCell id="S1zFZpBQ4yTUVJXa6N8P-338" value="&lt;span&gt;Дата внесения строки в базу данных&lt;/span&gt;" style="shape=partialRectangle;html=1;whiteSpace=wrap;connectable=0;fillColor=none;top=0;left=0;bottom=0;right=0;align=left;spacingLeft=6;overflow=hidden;pointerEvents=1;fontSize=10;strokeColor=#0F8B8D;fontColor=#143642;" parent="S1zFZpBQ4yTUVJXa6N8P-335" vertex="1">
          <mxGeometry x="221" width="125" height="27" as="geometry">
            <mxRectangle width="125" height="27" as="alternateBounds" />
          </mxGeometry>
        </mxCell>
        <mxCell id="S1zFZpBQ4yTUVJXa6N8P-272" value="" style="edgeStyle=orthogonalEdgeStyle;rounded=0;orthogonalLoop=1;jettySize=auto;html=1;entryX=1;entryY=0.5;entryDx=0;entryDy=0;exitX=0;exitY=0.5;exitDx=0;exitDy=0;endArrow=ERmandOne;endFill=0;startArrow=ERmany;startFill=0;labelBackgroundColor=#DAD2D8;strokeColor=#A8201A;fontColor=#143642;" parent="WIyWlLk6GJQsqaUBKTNV-1" source="S1zFZpBQ4yTUVJXa6N8P-55" target="S1zFZpBQ4yTUVJXa6N8P-260" edge="1">
          <mxGeometry relative="1" as="geometry">
            <mxPoint x="304" y="368.5" as="sourcePoint" />
            <mxPoint x="216" y="233.5" as="targetPoint" />
            <Array as="points">
              <mxPoint x="370" y="413" />
              <mxPoint x="370" y="494" />
            </Array>
          </mxGeometry>
        </mxCell>
        <mxCell id="S1zFZpBQ4yTUVJXa6N8P-310" value="sku_catalog" style="shape=table;startSize=30;container=1;collapsible=0;childLayout=tableLayout;fixedRows=1;rowLines=0;fontStyle=1;align=center;pointerEvents=1;rounded=0;shadow=0;glass=0;sketch=0;swimlaneFillColor=default;fontSize=10;fillColor=#FAE5C7;strokeColor=#0F8B8D;fontColor=#143642;" parent="WIyWlLk6GJQsqaUBKTNV-1" vertex="1">
          <mxGeometry x="760" y="180" width="390" height="406" as="geometry" />
        </mxCell>
        <mxCell id="S1zFZpBQ4yTUVJXa6N8P-311" value="" style="shape=partialRectangle;html=1;whiteSpace=wrap;collapsible=0;dropTarget=0;pointerEvents=1;fillColor=none;top=0;left=0;bottom=1;right=0;points=[[0,0.5],[1,0.5]];portConstraint=eastwest;fontSize=10;spacing=2;strokeColor=#0F8B8D;fontColor=#143642;" parent="S1zFZpBQ4yTUVJXa6N8P-310" vertex="1">
          <mxGeometry y="30" width="390" height="27" as="geometry" />
        </mxCell>
        <mxCell id="S1zFZpBQ4yTUVJXa6N8P-312" value="sku_process" style="shape=partialRectangle;html=1;whiteSpace=wrap;connectable=0;fillColor=none;top=0;left=0;bottom=0;right=0;overflow=hidden;pointerEvents=1;fontSize=10;strokeColor=#0F8B8D;fontColor=#143642;" parent="S1zFZpBQ4yTUVJXa6N8P-311" vertex="1">
          <mxGeometry width="115" height="27" as="geometry">
            <mxRectangle width="115" height="27" as="alternateBounds" />
          </mxGeometry>
        </mxCell>
        <mxCell id="S1zFZpBQ4yTUVJXa6N8P-313" value="primary_key" style="shape=partialRectangle;html=1;whiteSpace=wrap;connectable=0;fillColor=none;top=0;left=0;bottom=0;right=0;align=left;spacingLeft=6;overflow=hidden;pointerEvents=1;fontSize=10;strokeColor=#0F8B8D;fontColor=#143642;" parent="S1zFZpBQ4yTUVJXa6N8P-311" vertex="1">
          <mxGeometry x="115" width="89" height="27" as="geometry">
            <mxRectangle width="89" height="27" as="alternateBounds" />
          </mxGeometry>
        </mxCell>
        <mxCell id="S1zFZpBQ4yTUVJXa6N8P-314" value="" style="shape=partialRectangle;html=1;whiteSpace=wrap;connectable=0;fillColor=none;top=0;left=0;bottom=0;right=0;align=left;spacingLeft=6;overflow=hidden;pointerEvents=1;fontSize=10;strokeColor=#0F8B8D;fontColor=#143642;" parent="S1zFZpBQ4yTUVJXa6N8P-311" vertex="1">
          <mxGeometry x="204" width="186" height="27" as="geometry">
            <mxRectangle width="186" height="27" as="alternateBounds" />
          </mxGeometry>
        </mxCell>
        <mxCell id="S1zFZpBQ4yTUVJXa6N8P-315" value="" style="shape=partialRectangle;html=1;whiteSpace=wrap;collapsible=0;dropTarget=0;pointerEvents=1;fillColor=none;top=0;left=0;bottom=1;right=0;points=[[0,0.5],[1,0.5]];portConstraint=eastwest;fontSize=10;strokeColor=#0F8B8D;fontColor=#143642;" parent="S1zFZpBQ4yTUVJXa6N8P-310" vertex="1">
          <mxGeometry y="57" width="390" height="27" as="geometry" />
        </mxCell>
        <mxCell id="S1zFZpBQ4yTUVJXa6N8P-316" value="producer" style="shape=partialRectangle;html=1;whiteSpace=wrap;connectable=0;fillColor=none;top=0;left=0;bottom=0;right=0;overflow=hidden;pointerEvents=1;fontSize=10;strokeColor=#0F8B8D;fontColor=#143642;" parent="S1zFZpBQ4yTUVJXa6N8P-315" vertex="1">
          <mxGeometry width="115" height="27" as="geometry">
            <mxRectangle width="115" height="27" as="alternateBounds" />
          </mxGeometry>
        </mxCell>
        <mxCell id="S1zFZpBQ4yTUVJXa6N8P-317" value="Возможна нужна еще одна таблица" style="shape=partialRectangle;html=1;whiteSpace=wrap;connectable=0;top=0;left=0;bottom=0;right=0;align=left;spacingLeft=6;overflow=hidden;pointerEvents=1;fontSize=10;fillColor=#ffcccc;strokeColor=#36393d;" parent="S1zFZpBQ4yTUVJXa6N8P-315" vertex="1">
          <mxGeometry x="115" width="89" height="27" as="geometry">
            <mxRectangle width="89" height="27" as="alternateBounds" />
          </mxGeometry>
        </mxCell>
        <mxCell id="S1zFZpBQ4yTUVJXa6N8P-318" value="Производитель товара, утвержденный в NT" style="shape=partialRectangle;html=1;whiteSpace=wrap;connectable=0;fillColor=none;top=0;left=0;bottom=0;right=0;align=left;spacingLeft=6;overflow=hidden;pointerEvents=1;fontSize=10;strokeColor=#0F8B8D;fontColor=#143642;" parent="S1zFZpBQ4yTUVJXa6N8P-315" vertex="1">
          <mxGeometry x="204" width="186" height="27" as="geometry">
            <mxRectangle width="186" height="27" as="alternateBounds" />
          </mxGeometry>
        </mxCell>
        <mxCell id="S1zFZpBQ4yTUVJXa6N8P-319" value="" style="shape=partialRectangle;html=1;whiteSpace=wrap;collapsible=0;dropTarget=0;pointerEvents=1;fillColor=none;top=0;left=0;bottom=1;right=0;points=[[0,0.5],[1,0.5]];portConstraint=eastwest;fontSize=10;strokeColor=#0F8B8D;fontColor=#143642;" parent="S1zFZpBQ4yTUVJXa6N8P-310" vertex="1">
          <mxGeometry y="84" width="390" height="27" as="geometry" />
        </mxCell>
        <mxCell id="S1zFZpBQ4yTUVJXa6N8P-320" value="brand_hand_mark_level" style="shape=partialRectangle;html=1;whiteSpace=wrap;connectable=0;fillColor=none;top=0;left=0;bottom=0;right=0;overflow=hidden;pointerEvents=1;fontSize=10;strokeColor=#0F8B8D;fontColor=#143642;" parent="S1zFZpBQ4yTUVJXa6N8P-319" vertex="1">
          <mxGeometry width="115" height="27" as="geometry">
            <mxRectangle width="115" height="27" as="alternateBounds" />
          </mxGeometry>
        </mxCell>
        <mxCell id="S1zFZpBQ4yTUVJXa6N8P-321" value="" style="shape=partialRectangle;html=1;whiteSpace=wrap;connectable=0;fillColor=none;top=0;left=0;bottom=0;right=0;align=left;spacingLeft=6;overflow=hidden;pointerEvents=1;fontSize=10;strokeColor=#0F8B8D;fontColor=#143642;" parent="S1zFZpBQ4yTUVJXa6N8P-319" vertex="1">
          <mxGeometry x="115" width="89" height="27" as="geometry">
            <mxRectangle width="89" height="27" as="alternateBounds" />
          </mxGeometry>
        </mxCell>
        <mxCell id="S1zFZpBQ4yTUVJXa6N8P-322" value="Бренд, полученный при ручной разметке" style="shape=partialRectangle;html=1;whiteSpace=wrap;connectable=0;fillColor=none;top=0;left=0;bottom=0;right=0;align=left;spacingLeft=6;overflow=hidden;pointerEvents=1;fontSize=10;strokeColor=#0F8B8D;fontColor=#143642;" parent="S1zFZpBQ4yTUVJXa6N8P-319" vertex="1">
          <mxGeometry x="204" width="186" height="27" as="geometry">
            <mxRectangle width="186" height="27" as="alternateBounds" />
          </mxGeometry>
        </mxCell>
        <mxCell id="S1zFZpBQ4yTUVJXa6N8P-323" style="shape=partialRectangle;html=1;whiteSpace=wrap;collapsible=0;dropTarget=0;pointerEvents=1;fillColor=none;top=0;left=0;bottom=1;right=0;points=[[0,0.5],[1,0.5]];portConstraint=eastwest;fontSize=10;strokeColor=#0F8B8D;fontColor=#143642;" parent="S1zFZpBQ4yTUVJXa6N8P-310" vertex="1">
          <mxGeometry y="111" width="390" height="27" as="geometry" />
        </mxCell>
        <mxCell id="S1zFZpBQ4yTUVJXa6N8P-324" value="brand_prog_nt_level" style="shape=partialRectangle;html=1;whiteSpace=wrap;connectable=0;fillColor=none;top=0;left=0;bottom=0;right=0;overflow=hidden;pointerEvents=1;fontSize=10;strokeColor=#0F8B8D;fontColor=#143642;" parent="S1zFZpBQ4yTUVJXa6N8P-323" vertex="1">
          <mxGeometry width="115" height="27" as="geometry">
            <mxRectangle width="115" height="27" as="alternateBounds" />
          </mxGeometry>
        </mxCell>
        <mxCell id="S1zFZpBQ4yTUVJXa6N8P-325" style="shape=partialRectangle;html=1;whiteSpace=wrap;connectable=0;fillColor=none;top=0;left=0;bottom=0;right=0;align=left;spacingLeft=6;overflow=hidden;pointerEvents=1;fontSize=10;strokeColor=#0F8B8D;fontColor=#143642;" parent="S1zFZpBQ4yTUVJXa6N8P-323" vertex="1">
          <mxGeometry x="115" width="89" height="27" as="geometry">
            <mxRectangle width="89" height="27" as="alternateBounds" />
          </mxGeometry>
        </mxCell>
        <mxCell id="S1zFZpBQ4yTUVJXa6N8P-326" value="Бренд, полученный при отработке алгоритма nt по выявлению бренда" style="shape=partialRectangle;html=1;whiteSpace=wrap;connectable=0;fillColor=none;top=0;left=0;bottom=0;right=0;align=left;spacingLeft=6;overflow=hidden;pointerEvents=1;fontSize=10;strokeColor=#0F8B8D;fontColor=#143642;" parent="S1zFZpBQ4yTUVJXa6N8P-323" vertex="1">
          <mxGeometry x="204" width="186" height="27" as="geometry">
            <mxRectangle width="186" height="27" as="alternateBounds" />
          </mxGeometry>
        </mxCell>
        <mxCell id="S1zFZpBQ4yTUVJXa6N8P-327" style="shape=partialRectangle;html=1;whiteSpace=wrap;collapsible=0;dropTarget=0;pointerEvents=1;fillColor=none;top=0;left=0;bottom=1;right=0;points=[[0,0.5],[1,0.5]];portConstraint=eastwest;fontSize=10;strokeColor=#0F8B8D;fontColor=#143642;" parent="S1zFZpBQ4yTUVJXa6N8P-310" vertex="1">
          <mxGeometry y="138" width="390" height="27" as="geometry" />
        </mxCell>
        <mxCell id="S1zFZpBQ4yTUVJXa6N8P-328" value="brand_api_level" style="shape=partialRectangle;html=1;whiteSpace=wrap;connectable=0;fillColor=none;top=0;left=0;bottom=0;right=0;overflow=hidden;pointerEvents=1;fontSize=10;strokeColor=#0F8B8D;fontColor=#143642;" parent="S1zFZpBQ4yTUVJXa6N8P-327" vertex="1">
          <mxGeometry width="115" height="27" as="geometry">
            <mxRectangle width="115" height="27" as="alternateBounds" />
          </mxGeometry>
        </mxCell>
        <mxCell id="S1zFZpBQ4yTUVJXa6N8P-329" style="shape=partialRectangle;html=1;whiteSpace=wrap;connectable=0;fillColor=none;top=0;left=0;bottom=0;right=0;align=left;spacingLeft=6;overflow=hidden;pointerEvents=1;fontSize=10;strokeColor=#0F8B8D;fontColor=#143642;" parent="S1zFZpBQ4yTUVJXa6N8P-327" vertex="1">
          <mxGeometry x="115" width="89" height="27" as="geometry">
            <mxRectangle width="89" height="27" as="alternateBounds" />
          </mxGeometry>
        </mxCell>
        <mxCell id="S1zFZpBQ4yTUVJXa6N8P-330" value="Бренд, полученный при помощи сторонних сервисов" style="shape=partialRectangle;html=1;whiteSpace=wrap;connectable=0;fillColor=none;top=0;left=0;bottom=0;right=0;align=left;spacingLeft=6;overflow=hidden;pointerEvents=1;fontSize=10;strokeColor=#0F8B8D;fontColor=#143642;" parent="S1zFZpBQ4yTUVJXa6N8P-327" vertex="1">
          <mxGeometry x="204" width="186" height="27" as="geometry">
            <mxRectangle width="186" height="27" as="alternateBounds" />
          </mxGeometry>
        </mxCell>
        <mxCell id="S1zFZpBQ4yTUVJXa6N8P-340" style="shape=partialRectangle;html=1;whiteSpace=wrap;collapsible=0;dropTarget=0;pointerEvents=1;fillColor=none;top=0;left=0;bottom=1;right=0;points=[[0,0.5],[1,0.5]];portConstraint=eastwest;fontSize=10;strokeColor=#0F8B8D;fontColor=#143642;" parent="S1zFZpBQ4yTUVJXa6N8P-310" vertex="1">
          <mxGeometry y="165" width="390" height="25" as="geometry" />
        </mxCell>
        <mxCell id="S1zFZpBQ4yTUVJXa6N8P-341" value="brand_source" style="shape=partialRectangle;html=1;whiteSpace=wrap;connectable=0;fillColor=none;top=0;left=0;bottom=0;right=0;overflow=hidden;pointerEvents=1;fontSize=10;strokeColor=#0F8B8D;fontColor=#143642;" parent="S1zFZpBQ4yTUVJXa6N8P-340" vertex="1">
          <mxGeometry width="115" height="25" as="geometry">
            <mxRectangle width="115" height="25" as="alternateBounds" />
          </mxGeometry>
        </mxCell>
        <mxCell id="S1zFZpBQ4yTUVJXa6N8P-342" value="Под вопросом" style="shape=partialRectangle;html=1;whiteSpace=wrap;connectable=0;fillColor=#ffcccc;top=0;left=0;bottom=0;right=0;align=left;spacingLeft=6;overflow=hidden;pointerEvents=1;fontSize=10;strokeColor=#36393d;" parent="S1zFZpBQ4yTUVJXa6N8P-340" vertex="1">
          <mxGeometry x="115" width="89" height="25" as="geometry">
            <mxRectangle width="89" height="25" as="alternateBounds" />
          </mxGeometry>
        </mxCell>
        <mxCell id="S1zFZpBQ4yTUVJXa6N8P-343" value="Бренд исходник" style="shape=partialRectangle;html=1;whiteSpace=wrap;connectable=0;fillColor=none;top=0;left=0;bottom=0;right=0;align=left;spacingLeft=6;overflow=hidden;pointerEvents=1;fontSize=10;strokeColor=#0F8B8D;fontColor=#143642;" parent="S1zFZpBQ4yTUVJXa6N8P-340" vertex="1">
          <mxGeometry x="204" width="186" height="25" as="geometry">
            <mxRectangle width="186" height="25" as="alternateBounds" />
          </mxGeometry>
        </mxCell>
        <mxCell id="S1zFZpBQ4yTUVJXa6N8P-344" style="shape=partialRectangle;html=1;whiteSpace=wrap;collapsible=0;dropTarget=0;pointerEvents=1;fillColor=none;top=0;left=0;bottom=1;right=0;points=[[0,0.5],[1,0.5]];portConstraint=eastwest;fontSize=10;strokeColor=#0F8B8D;fontColor=#143642;" parent="S1zFZpBQ4yTUVJXa6N8P-310" vertex="1">
          <mxGeometry y="190" width="390" height="27" as="geometry" />
        </mxCell>
        <mxCell id="S1zFZpBQ4yTUVJXa6N8P-345" value="brand" style="shape=partialRectangle;html=1;whiteSpace=wrap;connectable=0;fillColor=none;top=0;left=0;bottom=0;right=0;overflow=hidden;pointerEvents=1;fontSize=10;strokeColor=#0F8B8D;fontColor=#143642;" parent="S1zFZpBQ4yTUVJXa6N8P-344" vertex="1">
          <mxGeometry width="115" height="27" as="geometry">
            <mxRectangle width="115" height="27" as="alternateBounds" />
          </mxGeometry>
        </mxCell>
        <mxCell id="S1zFZpBQ4yTUVJXa6N8P-346" value="Расчетный столбец" style="shape=partialRectangle;html=1;whiteSpace=wrap;connectable=0;fillColor=none;top=0;left=0;bottom=0;right=0;align=left;spacingLeft=6;overflow=hidden;pointerEvents=1;fontSize=10;strokeColor=#0F8B8D;fontColor=#143642;" parent="S1zFZpBQ4yTUVJXa6N8P-344" vertex="1">
          <mxGeometry x="115" width="89" height="27" as="geometry">
            <mxRectangle width="89" height="27" as="alternateBounds" />
          </mxGeometry>
        </mxCell>
        <mxCell id="S1zFZpBQ4yTUVJXa6N8P-347" value="Бренд товара, утвержденный в NT" style="shape=partialRectangle;html=1;whiteSpace=wrap;connectable=0;fillColor=none;top=0;left=0;bottom=0;right=0;align=left;spacingLeft=6;overflow=hidden;pointerEvents=1;fontSize=10;strokeColor=#0F8B8D;fontColor=#143642;" parent="S1zFZpBQ4yTUVJXa6N8P-344" vertex="1">
          <mxGeometry x="204" width="186" height="27" as="geometry">
            <mxRectangle width="186" height="27" as="alternateBounds" />
          </mxGeometry>
        </mxCell>
        <mxCell id="S1zFZpBQ4yTUVJXa6N8P-348" style="shape=partialRectangle;html=1;whiteSpace=wrap;collapsible=0;dropTarget=0;pointerEvents=1;fillColor=none;top=0;left=0;bottom=1;right=0;points=[[0,0.5],[1,0.5]];portConstraint=eastwest;fontSize=10;strokeColor=#0F8B8D;fontColor=#143642;" parent="S1zFZpBQ4yTUVJXa6N8P-310" vertex="1">
          <mxGeometry y="217" width="390" height="27" as="geometry" />
        </mxCell>
        <mxCell id="S1zFZpBQ4yTUVJXa6N8P-349" value="category_hand_mark_level" style="shape=partialRectangle;html=1;whiteSpace=wrap;connectable=0;fillColor=none;top=0;left=0;bottom=0;right=0;overflow=hidden;pointerEvents=1;fontSize=10;strokeColor=#0F8B8D;fontColor=#143642;" parent="S1zFZpBQ4yTUVJXa6N8P-348" vertex="1">
          <mxGeometry width="115" height="27" as="geometry">
            <mxRectangle width="115" height="27" as="alternateBounds" />
          </mxGeometry>
        </mxCell>
        <mxCell id="S1zFZpBQ4yTUVJXa6N8P-350" style="shape=partialRectangle;html=1;whiteSpace=wrap;connectable=0;fillColor=none;top=0;left=0;bottom=0;right=0;align=left;spacingLeft=6;overflow=hidden;pointerEvents=1;fontSize=10;strokeColor=#0F8B8D;fontColor=#143642;" parent="S1zFZpBQ4yTUVJXa6N8P-348" vertex="1">
          <mxGeometry x="115" width="89" height="27" as="geometry">
            <mxRectangle width="89" height="27" as="alternateBounds" />
          </mxGeometry>
        </mxCell>
        <mxCell id="S1zFZpBQ4yTUVJXa6N8P-351" value="Категория, полученная при ручной разметке" style="shape=partialRectangle;html=1;whiteSpace=wrap;connectable=0;fillColor=none;top=0;left=0;bottom=0;right=0;align=left;spacingLeft=6;overflow=hidden;pointerEvents=1;fontSize=10;strokeColor=#0F8B8D;fontColor=#143642;" parent="S1zFZpBQ4yTUVJXa6N8P-348" vertex="1">
          <mxGeometry x="204" width="186" height="27" as="geometry">
            <mxRectangle width="186" height="27" as="alternateBounds" />
          </mxGeometry>
        </mxCell>
        <mxCell id="S1zFZpBQ4yTUVJXa6N8P-352" style="shape=partialRectangle;html=1;whiteSpace=wrap;collapsible=0;dropTarget=0;pointerEvents=1;fillColor=none;top=0;left=0;bottom=1;right=0;points=[[0,0.5],[1,0.5]];portConstraint=eastwest;fontSize=10;strokeColor=#0F8B8D;fontColor=#143642;" parent="S1zFZpBQ4yTUVJXa6N8P-310" vertex="1">
          <mxGeometry y="244" width="390" height="27" as="geometry" />
        </mxCell>
        <mxCell id="S1zFZpBQ4yTUVJXa6N8P-353" value="category_prog_nt_level" style="shape=partialRectangle;html=1;whiteSpace=wrap;connectable=0;fillColor=none;top=0;left=0;bottom=0;right=0;overflow=hidden;pointerEvents=1;fontSize=10;strokeColor=#0F8B8D;fontColor=#143642;" parent="S1zFZpBQ4yTUVJXa6N8P-352" vertex="1">
          <mxGeometry width="115" height="27" as="geometry">
            <mxRectangle width="115" height="27" as="alternateBounds" />
          </mxGeometry>
        </mxCell>
        <mxCell id="S1zFZpBQ4yTUVJXa6N8P-354" style="shape=partialRectangle;html=1;whiteSpace=wrap;connectable=0;fillColor=none;top=0;left=0;bottom=0;right=0;align=left;spacingLeft=6;overflow=hidden;pointerEvents=1;fontSize=10;strokeColor=#0F8B8D;fontColor=#143642;" parent="S1zFZpBQ4yTUVJXa6N8P-352" vertex="1">
          <mxGeometry x="115" width="89" height="27" as="geometry">
            <mxRectangle width="89" height="27" as="alternateBounds" />
          </mxGeometry>
        </mxCell>
        <mxCell id="S1zFZpBQ4yTUVJXa6N8P-355" value="Категория, полученная при отработке алгоритма nt по выявлению категории" style="shape=partialRectangle;html=1;whiteSpace=wrap;connectable=0;fillColor=none;top=0;left=0;bottom=0;right=0;align=left;spacingLeft=6;overflow=hidden;pointerEvents=1;fontSize=10;strokeColor=#0F8B8D;fontColor=#143642;" parent="S1zFZpBQ4yTUVJXa6N8P-352" vertex="1">
          <mxGeometry x="204" width="186" height="27" as="geometry">
            <mxRectangle width="186" height="27" as="alternateBounds" />
          </mxGeometry>
        </mxCell>
        <mxCell id="S1zFZpBQ4yTUVJXa6N8P-356" style="shape=partialRectangle;html=1;whiteSpace=wrap;collapsible=0;dropTarget=0;pointerEvents=1;fillColor=none;top=0;left=0;bottom=1;right=0;points=[[0,0.5],[1,0.5]];portConstraint=eastwest;fontSize=10;strokeColor=#0F8B8D;fontColor=#143642;" parent="S1zFZpBQ4yTUVJXa6N8P-310" vertex="1">
          <mxGeometry y="271" width="390" height="27" as="geometry" />
        </mxCell>
        <mxCell id="S1zFZpBQ4yTUVJXa6N8P-357" value="category_api_level" style="shape=partialRectangle;html=1;whiteSpace=wrap;connectable=0;fillColor=none;top=0;left=0;bottom=0;right=0;overflow=hidden;pointerEvents=1;fontSize=10;strokeColor=#0F8B8D;fontColor=#143642;" parent="S1zFZpBQ4yTUVJXa6N8P-356" vertex="1">
          <mxGeometry width="115" height="27" as="geometry">
            <mxRectangle width="115" height="27" as="alternateBounds" />
          </mxGeometry>
        </mxCell>
        <mxCell id="S1zFZpBQ4yTUVJXa6N8P-358" style="shape=partialRectangle;html=1;whiteSpace=wrap;connectable=0;fillColor=none;top=0;left=0;bottom=0;right=0;align=left;spacingLeft=6;overflow=hidden;pointerEvents=1;fontSize=10;strokeColor=#0F8B8D;fontColor=#143642;" parent="S1zFZpBQ4yTUVJXa6N8P-356" vertex="1">
          <mxGeometry x="115" width="89" height="27" as="geometry">
            <mxRectangle width="89" height="27" as="alternateBounds" />
          </mxGeometry>
        </mxCell>
        <mxCell id="S1zFZpBQ4yTUVJXa6N8P-359" value="Категория, полученная при помощи сторонних сервисов" style="shape=partialRectangle;html=1;whiteSpace=wrap;connectable=0;fillColor=none;top=0;left=0;bottom=0;right=0;align=left;spacingLeft=6;overflow=hidden;pointerEvents=1;fontSize=10;strokeColor=#0F8B8D;fontColor=#143642;" parent="S1zFZpBQ4yTUVJXa6N8P-356" vertex="1">
          <mxGeometry x="204" width="186" height="27" as="geometry">
            <mxRectangle width="186" height="27" as="alternateBounds" />
          </mxGeometry>
        </mxCell>
        <mxCell id="S1zFZpBQ4yTUVJXa6N8P-368" style="shape=partialRectangle;html=1;whiteSpace=wrap;collapsible=0;dropTarget=0;pointerEvents=1;fillColor=none;top=0;left=0;bottom=1;right=0;points=[[0,0.5],[1,0.5]];portConstraint=eastwest;fontSize=10;strokeColor=#0F8B8D;fontColor=#143642;" parent="S1zFZpBQ4yTUVJXa6N8P-310" vertex="1">
          <mxGeometry y="298" width="390" height="27" as="geometry" />
        </mxCell>
        <mxCell id="S1zFZpBQ4yTUVJXa6N8P-369" value="category_nt" style="shape=partialRectangle;html=1;whiteSpace=wrap;connectable=0;fillColor=none;top=0;left=0;bottom=0;right=0;overflow=hidden;pointerEvents=1;fontSize=10;strokeColor=#0F8B8D;fontColor=#143642;" parent="S1zFZpBQ4yTUVJXa6N8P-368" vertex="1">
          <mxGeometry width="115" height="27" as="geometry">
            <mxRectangle width="115" height="27" as="alternateBounds" />
          </mxGeometry>
        </mxCell>
        <mxCell id="S1zFZpBQ4yTUVJXa6N8P-370" value="&lt;span&gt;Расчетный столбец&lt;/span&gt;" style="shape=partialRectangle;html=1;whiteSpace=wrap;connectable=0;fillColor=none;top=0;left=0;bottom=0;right=0;align=left;spacingLeft=6;overflow=hidden;pointerEvents=1;fontSize=10;strokeColor=#0F8B8D;fontColor=#143642;" parent="S1zFZpBQ4yTUVJXa6N8P-368" vertex="1">
          <mxGeometry x="115" width="89" height="27" as="geometry">
            <mxRectangle width="89" height="27" as="alternateBounds" />
          </mxGeometry>
        </mxCell>
        <mxCell id="S1zFZpBQ4yTUVJXa6N8P-371" value="Товарная категория утвержденная в NT" style="shape=partialRectangle;html=1;whiteSpace=wrap;connectable=0;fillColor=none;top=0;left=0;bottom=0;right=0;align=left;spacingLeft=6;overflow=hidden;pointerEvents=1;fontSize=10;strokeColor=#0F8B8D;fontColor=#143642;" parent="S1zFZpBQ4yTUVJXa6N8P-368" vertex="1">
          <mxGeometry x="204" width="186" height="27" as="geometry">
            <mxRectangle width="186" height="27" as="alternateBounds" />
          </mxGeometry>
        </mxCell>
        <mxCell id="S1zFZpBQ4yTUVJXa6N8P-364" style="shape=partialRectangle;html=1;whiteSpace=wrap;collapsible=0;dropTarget=0;pointerEvents=1;fillColor=none;top=0;left=0;bottom=1;right=0;points=[[0,0.5],[1,0.5]];portConstraint=eastwest;fontSize=10;strokeColor=#0F8B8D;fontColor=#143642;" parent="S1zFZpBQ4yTUVJXa6N8P-310" vertex="1">
          <mxGeometry y="325" width="390" height="27" as="geometry" />
        </mxCell>
        <mxCell id="S1zFZpBQ4yTUVJXa6N8P-365" value="group_nt" style="shape=partialRectangle;html=1;whiteSpace=wrap;connectable=0;fillColor=none;top=0;left=0;bottom=0;right=0;overflow=hidden;pointerEvents=1;fontSize=10;strokeColor=#0F8B8D;fontColor=#143642;" parent="S1zFZpBQ4yTUVJXa6N8P-364" vertex="1">
          <mxGeometry width="115" height="27" as="geometry">
            <mxRectangle width="115" height="27" as="alternateBounds" />
          </mxGeometry>
        </mxCell>
        <mxCell id="S1zFZpBQ4yTUVJXa6N8P-366" value="&lt;span style=&quot;color: rgb(0 , 0 , 0)&quot;&gt;Возможна нужна еще одна таблица&lt;/span&gt;" style="shape=partialRectangle;html=1;whiteSpace=wrap;connectable=0;fillColor=#ffcccc;top=0;left=0;bottom=0;right=0;align=left;spacingLeft=6;overflow=hidden;pointerEvents=1;fontSize=10;strokeColor=#36393d;" parent="S1zFZpBQ4yTUVJXa6N8P-364" vertex="1">
          <mxGeometry x="115" width="89" height="27" as="geometry">
            <mxRectangle width="89" height="27" as="alternateBounds" />
          </mxGeometry>
        </mxCell>
        <mxCell id="S1zFZpBQ4yTUVJXa6N8P-367" value="Группа товаров утвержденная в NT" style="shape=partialRectangle;html=1;whiteSpace=wrap;connectable=0;fillColor=none;top=0;left=0;bottom=0;right=0;align=left;spacingLeft=6;overflow=hidden;pointerEvents=1;fontSize=10;strokeColor=#0F8B8D;fontColor=#143642;" parent="S1zFZpBQ4yTUVJXa6N8P-364" vertex="1">
          <mxGeometry x="204" width="186" height="27" as="geometry">
            <mxRectangle width="186" height="27" as="alternateBounds" />
          </mxGeometry>
        </mxCell>
        <mxCell id="S1zFZpBQ4yTUVJXa6N8P-360" style="shape=partialRectangle;html=1;whiteSpace=wrap;collapsible=0;dropTarget=0;pointerEvents=1;fillColor=none;top=0;left=0;bottom=1;right=0;points=[[0,0.5],[1,0.5]];portConstraint=eastwest;fontSize=10;strokeColor=#0F8B8D;fontColor=#143642;" parent="S1zFZpBQ4yTUVJXa6N8P-310" vertex="1">
          <mxGeometry y="352" width="390" height="27" as="geometry" />
        </mxCell>
        <mxCell id="S1zFZpBQ4yTUVJXa6N8P-361" value="class_nt" style="shape=partialRectangle;html=1;whiteSpace=wrap;connectable=0;fillColor=none;top=0;left=0;bottom=0;right=0;overflow=hidden;pointerEvents=1;fontSize=10;strokeColor=#0F8B8D;fontColor=#143642;" parent="S1zFZpBQ4yTUVJXa6N8P-360" vertex="1">
          <mxGeometry width="115" height="27" as="geometry">
            <mxRectangle width="115" height="27" as="alternateBounds" />
          </mxGeometry>
        </mxCell>
        <mxCell id="S1zFZpBQ4yTUVJXa6N8P-362" value="&lt;span style=&quot;color: rgb(0 , 0 , 0)&quot;&gt;Возможна нужна еще одна таблица&lt;/span&gt;" style="shape=partialRectangle;html=1;whiteSpace=wrap;connectable=0;fillColor=#ffcccc;top=0;left=0;bottom=0;right=0;align=left;spacingLeft=6;overflow=hidden;pointerEvents=1;fontSize=10;strokeColor=#36393d;" parent="S1zFZpBQ4yTUVJXa6N8P-360" vertex="1">
          <mxGeometry x="115" width="89" height="27" as="geometry">
            <mxRectangle width="89" height="27" as="alternateBounds" />
          </mxGeometry>
        </mxCell>
        <mxCell id="S1zFZpBQ4yTUVJXa6N8P-363" value="Класс товара утвержденный в NT" style="shape=partialRectangle;html=1;whiteSpace=wrap;connectable=0;fillColor=none;top=0;left=0;bottom=0;right=0;align=left;spacingLeft=6;overflow=hidden;pointerEvents=1;fontSize=10;strokeColor=#0F8B8D;fontColor=#143642;" parent="S1zFZpBQ4yTUVJXa6N8P-360" vertex="1">
          <mxGeometry x="204" width="186" height="27" as="geometry">
            <mxRectangle width="186" height="27" as="alternateBounds" />
          </mxGeometry>
        </mxCell>
        <mxCell id="S1zFZpBQ4yTUVJXa6N8P-373" style="shape=partialRectangle;html=1;whiteSpace=wrap;collapsible=0;dropTarget=0;pointerEvents=1;fillColor=none;top=0;left=0;bottom=1;right=0;points=[[0,0.5],[1,0.5]];portConstraint=eastwest;fontSize=10;strokeColor=#0F8B8D;fontColor=#143642;" parent="S1zFZpBQ4yTUVJXa6N8P-310" vertex="1">
          <mxGeometry y="379" width="390" height="27" as="geometry" />
        </mxCell>
        <mxCell id="S1zFZpBQ4yTUVJXa6N8P-374" value="&lt;span&gt;date_add_rows&lt;/span&gt;" style="shape=partialRectangle;html=1;whiteSpace=wrap;connectable=0;fillColor=none;top=0;left=0;bottom=0;right=0;overflow=hidden;pointerEvents=1;fontSize=10;strokeColor=#0F8B8D;fontColor=#143642;" parent="S1zFZpBQ4yTUVJXa6N8P-373" vertex="1">
          <mxGeometry width="115" height="27" as="geometry">
            <mxRectangle width="115" height="27" as="alternateBounds" />
          </mxGeometry>
        </mxCell>
        <mxCell id="S1zFZpBQ4yTUVJXa6N8P-375" style="shape=partialRectangle;html=1;whiteSpace=wrap;connectable=0;top=0;left=0;bottom=0;right=0;align=left;spacingLeft=6;overflow=hidden;pointerEvents=1;fontSize=10;fontColor=#143642;strokeColor=#0F8B8D;fillColor=none;" parent="S1zFZpBQ4yTUVJXa6N8P-373" vertex="1">
          <mxGeometry x="115" width="89" height="27" as="geometry">
            <mxRectangle width="89" height="27" as="alternateBounds" />
          </mxGeometry>
        </mxCell>
        <mxCell id="S1zFZpBQ4yTUVJXa6N8P-376" value="&lt;span&gt;Дата внесения строки в базу данных&lt;/span&gt;" style="shape=partialRectangle;html=1;whiteSpace=wrap;connectable=0;fillColor=none;top=0;left=0;bottom=0;right=0;align=left;spacingLeft=6;overflow=hidden;pointerEvents=1;fontSize=10;strokeColor=#0F8B8D;fontColor=#143642;" parent="S1zFZpBQ4yTUVJXa6N8P-373" vertex="1">
          <mxGeometry x="204" width="186" height="27" as="geometry">
            <mxRectangle width="186" height="27" as="alternateBounds" />
          </mxGeometry>
        </mxCell>
        <mxCell id="S1zFZpBQ4yTUVJXa6N8P-339" value="" style="edgeStyle=orthogonalEdgeStyle;rounded=0;orthogonalLoop=1;jettySize=auto;html=1;entryX=0;entryY=0.5;entryDx=0;entryDy=0;exitX=1;exitY=0.5;exitDx=0;exitDy=0;endArrow=ERmandOne;endFill=0;startArrow=ERmany;startFill=0;labelBackgroundColor=#DAD2D8;strokeColor=#A8201A;fontColor=#143642;" parent="WIyWlLk6GJQsqaUBKTNV-1" source="S1zFZpBQ4yTUVJXa6N8P-282" target="S1zFZpBQ4yTUVJXa6N8P-311" edge="1">
          <mxGeometry relative="1" as="geometry">
            <mxPoint x="304" y="395.5" as="sourcePoint" />
            <mxPoint x="216" y="433.5" as="targetPoint" />
            <Array as="points">
              <mxPoint x="740" y="466" />
              <mxPoint x="740" y="224" />
            </Array>
          </mxGeometry>
        </mxCell>
      </root>
    </mxGraphModel>
  </diagram>
</mxfile>
